<svg xmlns="http://www.w3.org/2000/svg" width="1227.144775390625" height="581.800048828125" viewBox="-538.3662109375 -379.1217956542969 1227.144775390625 581.800048828125"><title>Neo4j Graph Visualization</title><desc>Created using Neo4j (http://www.neo4j.com/)</desc><g class="layer relationships"><g class="relationship" transform="translate(-216.20925409207354 -104.86444032508028) rotate(319.95090188395346)"><path class="outline" fill="#A5ABB6" stroke="none" d="M 25 0.5 L 165.84742117801034 0.5 L 165.84742117801034 -0.5 L 25 -0.5 Z M 208.31617117801034 0.5 L 349.1635923560207 0.5 L 349.1635923560207 3.5 L 356.1635923560207 0 L 349.1635923560207 -3.5 L 349.1635923560207 -0.5 L 208.31617117801034 -0.5 Z"/><text text-anchor="middle" pointer-events="none" font-size="8px" fill="#000000" x="187.08179617801034" y="3" font-family="sans-serif">is_type_of</text></g><g class="relationship" transform="translate(373.7359734442741 -92.24187939081733) rotate(220.85600553353208)"><path class="outline" fill="#A5ABB6" stroke="none" d="M 25 0.5 L 172.37323052197627 0.5 L 172.37323052197627 -0.5 L 25 -0.5 Z M 214.84198052197627 0.5 L 362.21521104395254 0.5 L 362.21521104395254 3.5 L 369.21521104395254 0 L 362.21521104395254 -3.5 L 362.21521104395254 -0.5 L 214.84198052197627 -0.5 Z"/><text text-anchor="middle" pointer-events="none" font-size="8px" fill="#000000" x="193.60760552197627" y="3" transform="rotate(180 193.60760552197627 0)" font-family="sans-serif">is_type_of</text></g><g class="relationship" transform="translate(219.92848632786954 -53.90561222779541) rotate(346.0042950747944)"><path class="outline" fill="#A5ABB6" stroke="none" d="M 25 0.5 L 65.41867451798603 0.5 L 65.41867451798603 -0.5 L 25 -0.5 Z M 86.09445576798603 0.5 L 126.51313028597207 0.5 L 126.51313028597207 3.5 L 133.51313028597207 0 L 126.51313028597207 -3.5 L 126.51313028597207 -0.5 L 86.09445576798603 -0.5 Z"/><text text-anchor="middle" pointer-events="none" font-size="8px" fill="#000000" x="75.75656514298603" y="3" font-family="sans-serif">is_a</text></g><g class="relationship" transform="translate(195.9641695721705 -108.75387324631998) rotate(365.3065833626951)"><path class="outline" fill="#A5ABB6" stroke="none" d="M 25 0.5 L 75.43060912858866 0.5 L 75.43060912858866 -0.5 L 25 -0.5 Z M 96.10639037858866 0.5 L 146.5369995071773 0.5 L 146.5369995071773 3.5 L 153.5369995071773 0 L 146.5369995071773 -3.5 L 146.5369995071773 -0.5 L 96.10639037858866 -0.5 Z"/><text text-anchor="middle" pointer-events="none" font-size="8px" fill="#000000" x="85.76849975358866" y="3" font-family="sans-serif">is_a</text></g><g class="relationship" transform="translate(268.4841481699199 -208.7303643461328) rotate(407.900974256175)"><path class="outline" fill="#A5ABB6" stroke="none" d="M 25 0.5 L 64.65974285965983 0.5 L 64.65974285965983 -0.5 L 25 -0.5 Z M 85.33552410965983 0.5 L 124.99526696931966 0.5 L 124.99526696931966 3.5 L 131.99526696931966 0 L 124.99526696931966 -3.5 L 124.99526696931966 -0.5 L 85.33552410965983 -0.5 Z"/><text text-anchor="middle" pointer-events="none" font-size="8px" fill="#000000" x="74.99763348465983" y="3" font-family="sans-serif">is_a</text></g><g class="relationship" transform="translate(238.037528661908 9.762677833154795) rotate(323.0678056086524)"><path class="outline" fill="#A5ABB6" stroke="none" d="M 25 0.5 L 71.04290462753559 0.5 L 71.04290462753559 -0.5 L 25 -0.5 Z M 91.71868587753559 0.5 L 137.76159050507118 0.5 L 137.76159050507118 3.5 L 144.76159050507118 0 L 137.76159050507118 -3.5 L 137.76159050507118 -0.5 L 91.71868587753559 -0.5 Z"/><text text-anchor="middle" pointer-events="none" font-size="8px" fill="#000000" x="81.38079525253559" y="3" font-family="sans-serif">is_a</text></g><g class="relationship" transform="translate(209.22245989416186 -218.59600494699143) rotate(397.52595970132245)"><path class="outline" fill="#A5ABB6" stroke="none" d="M 25 0.5 L 89.88055178722048 0.5 L 89.88055178722048 -0.5 L 25 -0.5 Z M 110.55633303722048 0.5 L 175.43688482444097 0.5 L 175.43688482444097 3.5 L 182.43688482444097 0 L 175.43688482444097 -3.5 L 175.43688482444097 -0.5 L 110.55633303722048 -0.5 Z"/><text text-anchor="middle" pointer-events="none" font-size="8px" fill="#000000" x="100.21844241222048" y="3" font-family="sans-serif">is_a</text></g><g class="relationship" transform="translate(209.82590396945025 110.85404268099676) rotate(308.90552180491966)"><path class="outline" fill="#A5ABB6" stroke="none" d="M 25 0.5 L 116.65584910745034 0.5 L 116.65584910745034 -0.5 L 25 -0.5 Z M 137.33163035745034 0.5 L 228.98747946490067 0.5 L 228.98747946490067 3.5 L 235.98747946490067 0 L 228.98747946490067 -3.5 L 228.98747946490067 -0.5 L 137.33163035745034 -0.5 Z"/><text text-anchor="middle" pointer-events="none" font-size="8px" fill="#000000" x="126.99373973245034" y="3" font-family="sans-serif">is_a</text></g><g class="relationship" transform="translate(281.92117197976984 -64.27431839654899) rotate(343.05882311731534)"><path class="outline" fill="#A5ABB6" stroke="none" d="M 25 0.5 L 34.15206206286597 0.5 L 34.15206206286597 -0.5 L 25 -0.5 Z M 54.82784331286597 0.5 L 63.979905375731946 0.5 L 63.979905375731946 3.5 L 70.97990537573195 0 L 63.979905375731946 -3.5 L 63.979905375731946 -0.5 L 54.82784331286597 -0.5 Z"/><text text-anchor="middle" pointer-events="none" font-size="8px" fill="#000000" x="44.48995268786597" y="3" font-family="sans-serif">is_a</text></g><g class="relationship" transform="translate(371.59879917916976 72.27927891636176) rotate(270.7442457838066)"><path class="outline" fill="#A5ABB6" stroke="none" d="M 25 0.5 L 68.42962885349058 0.5 L 68.42962885349058 -0.5 L 25 -0.5 Z M 89.10541010349058 0.5 L 132.53503895698117 0.5 L 132.53503895698117 3.5 L 139.53503895698117 0 L 132.53503895698117 -3.5 L 132.53503895698117 -0.5 L 89.10541010349058 -0.5 Z"/><text text-anchor="middle" pointer-events="none" font-size="8px" fill="#000000" x="78.76751947849058" y="3" font-family="sans-serif">is_a</text></g><g class="relationship" transform="translate(251.641040196672 67.98452362984487) rotate(307.307946816503)"><path class="outline" fill="#A5ABB6" stroke="none" d="M 25 0.5 L 86.88409425128717 0.5 L 86.88409425128717 -0.5 L 25 -0.5 Z M 107.55987550128717 0.5 L 169.44396975257433 0.5 L 169.44396975257433 3.5 L 176.44396975257433 0 L 169.44396975257433 -3.5 L 169.44396975257433 -0.5 L 107.55987550128717 -0.5 Z"/><text text-anchor="middle" pointer-events="none" font-size="8px" fill="#000000" x="97.22198487628717" y="3" font-family="sans-serif">is_a</text></g><g class="relationship" transform="translate(225.564190960245 -160.91346121967436) rotate(384.8658004837637)"><path class="outline" fill="#A5ABB6" stroke="none" d="M 25 0.5 L 67.81788577105762 0.5 L 67.81788577105762 -0.5 L 25 -0.5 Z M 88.49366702105762 0.5 L 131.31155279211524 0.5 L 131.31155279211524 3.5 L 138.31155279211524 0 L 131.31155279211524 -3.5 L 131.31155279211524 -0.5 L 88.49366702105762 -0.5 Z"/><text text-anchor="middle" pointer-events="none" font-size="8px" fill="#000000" x="78.15577639605762" y="3" font-family="sans-serif">is_a</text></g><g class="relationship" transform="translate(515.5416940652536 73.18871693037178) rotate(229.39709483656338)"><path class="outline" fill="#A5ABB6" stroke="none" d="M 25 0.5 L 95.10721550650497 0.5 L 95.10721550650497 -0.5 L 25 -0.5 Z M 115.78299675650497 0.5 L 185.89021226300994 0.5 L 185.89021226300994 3.5 L 192.89021226300994 0 L 185.89021226300994 -3.5 L 185.89021226300994 -0.5 L 115.78299675650497 -0.5 Z"/><text text-anchor="middle" pointer-events="none" font-size="8px" fill="#000000" x="105.44510613150497" y="3" transform="rotate(180 105.44510613150497 0)" font-family="sans-serif">is_a</text></g><g class="relationship" transform="translate(194.44957083471996 50.853629459107296) rotate(321.4052599630669)"><path class="outline" fill="#A5ABB6" stroke="none" d="M 25 0.5 L 100.85729106727293 0.5 L 100.85729106727293 -0.5 L 25 -0.5 Z M 121.53307231727293 0.5 L 197.39036338454585 0.5 L 197.39036338454585 3.5 L 204.39036338454585 0 L 197.39036338454585 -3.5 L 197.39036338454585 -0.5 L 121.53307231727293 -0.5 Z"/><text text-anchor="middle" pointer-events="none" font-size="8px" fill="#000000" x="111.19518169227293" y="3" font-family="sans-serif">is_a</text></g><g class="relationship" transform="translate(351.90939263386787 15.591351030404374) rotate(281.44267159200643)"><path class="outline" fill="#A5ABB6" stroke="none" d="M 25 0.5 L 41.17212031153201 0.5 L 41.17212031153201 -0.5 L 25 -0.5 Z M 61.84790156153201 0.5 L 78.02002187306402 0.5 L 78.02002187306402 3.5 L 85.02002187306402 0 L 78.02002187306402 -3.5 L 78.02002187306402 -0.5 L 61.84790156153201 -0.5 Z"/><text text-anchor="middle" pointer-events="none" font-size="8px" fill="#000000" x="51.51001093653201" y="3" font-family="sans-serif">is_a</text></g><g class="relationship" transform="translate(339.939380141155 123.01629357955089) rotate(278.9228774587506)"><path class="outline" fill="#A5ABB6" stroke="none" d="M 25 0.5 L 95.10967789931057 0.5 L 95.10967789931057 -0.5 L 25 -0.5 Z M 115.78545914931057 0.5 L 185.89513704862114 0.5 L 185.89513704862114 3.5 L 192.89513704862114 0 L 185.89513704862114 -3.5 L 185.89513704862114 -0.5 L 115.78545914931057 -0.5 Z"/><text text-anchor="middle" pointer-events="none" font-size="8px" fill="#000000" x="105.44756852431057" y="3" font-family="sans-serif">is_a</text></g><g class="relationship" transform="translate(308.0910933247862 173.67822358359348) rotate(283.8667611041941)"><path class="outline" fill="#A5ABB6" stroke="none" d="M 25 0.5 L 123.11351631540276 0.5 L 123.11351631540276 -0.5 L 25 -0.5 Z M 143.78929756540276 0.5 L 241.90281388080552 0.5 L 241.90281388080552 3.5 L 248.90281388080552 0 L 241.90281388080552 -3.5 L 241.90281388080552 -0.5 L 143.78929756540276 -0.5 Z"/><text text-anchor="middle" pointer-events="none" font-size="8px" fill="#000000" x="133.45140694040276" y="3" font-family="sans-serif">is_a</text></g><g class="relationship" transform="translate(518.9769563299931 13.402789112162628) rotate(216.03120803440015)"><path class="outline" fill="#A5ABB6" stroke="none" d="M 25 0.5 L 75.96152347764632 0.5 L 75.96152347764632 -0.5 L 25 -0.5 Z M 96.63730472764632 0.5 L 147.59882820529265 0.5 L 147.59882820529265 3.5 L 154.59882820529265 0 L 147.59882820529265 -3.5 L 147.59882820529265 -0.5 L 96.63730472764632 -0.5 Z"/><text text-anchor="middle" pointer-events="none" font-size="8px" fill="#000000" x="86.29941410264632" y="3" transform="rotate(180 86.29941410264632 0)" font-family="sans-serif">is_a</text></g><g class="relationship" transform="translate(284.3377798899854 -148.51284082097766) rotate(392.1880273342555)"><path class="outline" fill="#A5ABB6" stroke="none" d="M 25 0.5 L 38.97891094193667 0.5 L 38.97891094193667 -0.5 L 25 -0.5 Z M 59.65469219193667 0.5 L 73.63360313387334 0.5 L 73.63360313387334 3.5 L 80.63360313387334 0 L 73.63360313387334 -3.5 L 73.63360313387334 -0.5 L 59.65469219193667 -0.5 Z"/><text text-anchor="middle" pointer-events="none" font-size="8px" fill="#000000" x="49.31680156693667" y="3" font-family="sans-serif">is_a</text></g><g class="relationship" transform="translate(296.0778113220076 -6.024008479030593) rotate(312.0099965554977)"><path class="outline" fill="#A5ABB6" stroke="none" d="M 25 0.5 L 44.18001912873412 0.5 L 44.18001912873412 -0.5 L 25 -0.5 Z M 64.85580037873413 0.5 L 84.03581950746825 0.5 L 84.03581950746825 3.5 L 91.03581950746825 0 L 84.03581950746825 -3.5 L 84.03581950746825 -0.5 L 64.85580037873413 -0.5 Z"/><text text-anchor="middle" pointer-events="none" font-size="8px" fill="#000000" x="54.51790975373412" y="3" font-family="sans-serif">is_a</text></g><g class="relationship" transform="translate(180.89159533487003 -7.556879720106923) rotate(336.2919702428628)"><path class="outline" fill="#A5ABB6" stroke="none" d="M 25 0.5 L 91.47177576136625 0.5 L 91.47177576136625 -0.5 L 25 -0.5 Z M 112.14755701136625 0.5 L 178.6193327727325 0.5 L 178.6193327727325 3.5 L 185.6193327727325 0 L 178.6193327727325 -3.5 L 178.6193327727325 -0.5 L 112.14755701136625 -0.5 Z"/><text text-anchor="middle" pointer-events="none" font-size="8px" fill="#000000" x="101.80966638636625" y="3" font-family="sans-serif">is_a</text></g><g class="relationship" transform="translate(280.019345677353 120.94198424675821) rotate(293.7305161943663)"><path class="outline" fill="#A5ABB6" stroke="none" d="M 25 0.5 L 102.59896569146886 0.5 L 102.59896569146886 -0.5 L 25 -0.5 Z M 123.27474694146886 0.5 L 200.87371263293772 0.5 L 200.87371263293772 3.5 L 207.87371263293772 0 L 200.87371263293772 -3.5 L 200.87371263293772 -0.5 L 123.27474694146886 -0.5 Z"/><text text-anchor="middle" pointer-events="none" font-size="8px" fill="#000000" x="112.93685631646886" y="3" font-family="sans-serif">is_a</text></g><g class="relationship" transform="translate(311.74759222602023 70.15442744393248) rotate(290.8923823687076)"><path class="outline" fill="#A5ABB6" stroke="none" d="M 25 0.5 L 73.07459392069944 0.5 L 73.07459392069944 -0.5 L 25 -0.5 Z M 93.75037517069944 0.5 L 141.82496909139888 0.5 L 141.82496909139888 3.5 L 148.82496909139888 0 L 141.82496909139888 -3.5 L 141.82496909139888 -0.5 L 93.75037517069944 -0.5 Z"/><text text-anchor="middle" pointer-events="none" font-size="8px" fill="#000000" x="83.41248454569944" y="3" font-family="sans-serif">is_a</text></g><g class="relationship" transform="translate(167.64021755499377 -175.4548225670503) rotate(381.9868189679836)"><path class="outline" fill="#A5ABB6" stroke="none" d="M 25 0.5 L 97.29249957905806 0.5 L 97.29249957905806 -0.5 L 25 -0.5 Z M 117.96828082905806 0.5 L 190.26078040811612 0.5 L 190.26078040811612 3.5 L 197.26078040811612 0 L 190.26078040811612 -3.5 L 190.26078040811612 -0.5 L 117.96828082905806 -0.5 Z"/><text text-anchor="middle" pointer-events="none" font-size="8px" fill="#000000" x="107.63039020405806" y="3" font-family="sans-serif">is_a</text></g><g class="relationship" transform="translate(558.0087568071918 -99.3348388286218) rotate(537.7956803800689)"><path class="outline" fill="#A5ABB6" stroke="none" d="M 25 0.5 L 78.36673068258841 0.5 L 78.36673068258841 -0.5 L 25 -0.5 Z M 99.04251193258841 0.5 L 152.40924261517682 0.5 L 152.40924261517682 3.5 L 159.40924261517682 0 L 152.40924261517682 -3.5 L 152.40924261517682 -0.5 L 99.04251193258841 -0.5 Z"/><text text-anchor="middle" pointer-events="none" font-size="8px" fill="#000000" x="88.70462130758841" y="3" transform="rotate(180 88.70462130758841 0)" font-family="sans-serif">is_a</text></g><g class="relationship" transform="translate(533.3855625992137 -153.9782889282346) rotate(518.8585407893872)"><path class="outline" fill="#A5ABB6" stroke="none" d="M 25 0.5 L 71.7474112379845 0.5 L 71.7474112379845 -0.5 L 25 -0.5 Z M 92.4231924879845 0.5 L 139.170603725969 0.5 L 139.170603725969 3.5 L 146.170603725969 0 L 139.170603725969 -3.5 L 139.170603725969 -0.5 L 92.4231924879845 -0.5 Z"/><text text-anchor="middle" pointer-events="none" font-size="8px" fill="#000000" x="82.0853018629845" y="3" transform="rotate(180 82.0853018629845 0)" font-family="sans-serif">is_a</text></g><g class="relationship" transform="translate(515.721814018478 -211.25681766010368) rotate(500.02969087895735)"><path class="outline" fill="#A5ABB6" stroke="none" d="M 25 0.5 L 78.79651774306438 0.5 L 78.79651774306438 -0.5 L 25 -0.5 Z M 99.47229899306438 0.5 L 153.26881673612877 0.5 L 153.26881673612877 3.5 L 160.26881673612877 0 L 153.26881673612877 -3.5 L 153.26881673612877 -0.5 L 99.47229899306438 -0.5 Z"/><text text-anchor="middle" pointer-events="none" font-size="8px" fill="#000000" x="89.13440836806438" y="3" transform="rotate(180 89.13440836806438 0)" font-family="sans-serif">is_a</text></g><g class="relationship" transform="translate(325.8422694049234 -191.72995917389542) rotate(424.2937696891315)"><path class="outline" fill="#A5ABB6" stroke="none" d="M 25 0.5 L 41.37009092099802 0.5 L 41.37009092099802 -0.5 L 25 -0.5 Z M 62.04587217099802 0.5 L 78.41596309199603 0.5 L 78.41596309199603 3.5 L 85.41596309199603 0 L 78.41596309199603 -3.5 L 78.41596309199603 -0.5 L 62.04587217099802 -0.5 Z"/><text text-anchor="middle" pointer-events="none" font-size="8px" fill="#000000" x="51.70798154599802" y="3" font-family="sans-serif">is_a</text></g><g class="relationship" transform="translate(573.4450957667752 -11.381840739665485) rotate(202.04248651137624)"><path class="outline" fill="#A5ABB6" stroke="none" d="M 25 0.5 L 93.89102771809101 0.5 L 93.89102771809101 -0.5 L 25 -0.5 Z M 114.56680896809101 0.5 L 183.45783668618202 0.5 L 183.45783668618202 3.5 L 190.45783668618202 0 L 183.45783668618202 -3.5 L 183.45783668618202 -0.5 L 114.56680896809101 -0.5 Z"/><text text-anchor="middle" pointer-events="none" font-size="8px" fill="#000000" x="104.22891834309101" y="3" transform="rotate(180 104.22891834309101 0)" font-family="sans-serif">is_a</text></g><g class="relationship" transform="translate(-137.48693040453676 -63.55454601823092) rotate(207.68844525333003)"><path class="outline" fill="#A5ABB6" stroke="none" d="M 25 0.5 L 30.61351996681468 0.5 L 30.61351996681468 -0.5 L 25 -0.5 Z M 51.28930121681468 0.5 L 56.90282118362936 0.5 L 56.90282118362936 3.5 L 63.90282118362936 0 L 56.90282118362936 -3.5 L 56.90282118362936 -0.5 L 51.28930121681468 -0.5 Z"/><text text-anchor="middle" pointer-events="none" font-size="8px" fill="#000000" x="40.95141059181468" y="3" transform="rotate(180 40.95141059181468 0)" font-family="sans-serif">is_a</text></g><g class="relationship" transform="translate(-63.520750467091716 -77.79193379405922) rotate(190.05436354427115)"><path class="outline" fill="#A5ABB6" stroke="none" d="M 25 0.5 L 63.697101070859915 0.5 L 63.697101070859915 -0.5 L 25 -0.5 Z M 84.37288232085992 0.5 L 123.06998339171983 0.5 L 123.06998339171983 3.5 L 130.06998339171983 0 L 123.06998339171983 -3.5 L 123.06998339171983 -0.5 L 84.37288232085992 -0.5 Z"/><text text-anchor="middle" pointer-events="none" font-size="8px" fill="#000000" x="74.03499169585992" y="3" transform="rotate(180 74.03499169585992 0)" font-family="sans-serif">is_a</text></g><g class="relationship" transform="translate(-394.8764166067097 -78.36434949952707) rotate(351.5633406711971)"><path class="outline" fill="#A5ABB6" stroke="none" d="M 25 0.5 L 76.47297496546202 0.5 L 76.47297496546202 -0.5 L 25 -0.5 Z M 97.14875621546202 0.5 L 148.62173118092403 0.5 L 148.62173118092403 3.5 L 155.62173118092403 0 L 148.62173118092403 -3.5 L 148.62173118092403 -0.5 L 97.14875621546202 -0.5 Z"/><text text-anchor="middle" pointer-events="none" font-size="8px" fill="#000000" x="86.81086559046202" y="3" font-family="sans-serif">is_a</text></g><g class="relationship" transform="translate(-372.4064261798985 -196.00912282575354) rotate(390.26455554922916)"><path class="outline" fill="#A5ABB6" stroke="none" d="M 25 0.5 L 76.58460341876953 0.5 L 76.58460341876953 -0.5 L 25 -0.5 Z M 97.26038466876953 0.5 L 148.84498808753906 0.5 L 148.84498808753906 3.5 L 155.84498808753906 0 L 148.84498808753906 -3.5 L 148.84498808753906 -0.5 L 97.26038466876953 -0.5 Z"/><text text-anchor="middle" pointer-events="none" font-size="8px" fill="#000000" x="86.92249404376953" y="3" font-family="sans-serif">is_a</text></g><g class="relationship" transform="translate(-133.3777692912314 -241.22963624763327) rotate(481.2754974983553)"><path class="outline" fill="#A5ABB6" stroke="none" d="M 25 0.5 L 65.93760926893422 0.5 L 65.93760926893422 -0.5 L 25 -0.5 Z M 86.61339051893422 0.5 L 127.55099978786845 0.5 L 127.55099978786845 3.5 L 134.55099978786845 0 L 127.55099978786845 -3.5 L 127.55099978786845 -0.5 L 86.61339051893422 -0.5 Z"/><text text-anchor="middle" pointer-events="none" font-size="8px" fill="#000000" x="76.27549989393422" y="3" transform="rotate(180 76.27549989393422 0)" font-family="sans-serif">is_a</text></g><g class="relationship" transform="translate(-99.44961771886841 17.098244385257892) rotate(226.24858671497287)"><path class="outline" fill="#A5ABB6" stroke="none" d="M 25 0.5 L 70.58323994631557 0.5 L 70.58323994631557 -0.5 L 25 -0.5 Z M 91.25902119631557 0.5 L 136.84226114263114 0.5 L 136.84226114263114 3.5 L 143.84226114263114 0 L 136.84226114263114 -3.5 L 136.84226114263114 -0.5 L 91.25902119631557 -0.5 Z"/><text text-anchor="middle" pointer-events="none" font-size="8px" fill="#000000" x="80.92113057131557" y="3" transform="rotate(180 80.92113057131557 0)" font-family="sans-serif">is_a</text></g><g class="relationship" transform="translate(-54.781840851889115 123.72222494339658) rotate(234.77034352684228)"><path class="outline" fill="#A5ABB6" stroke="none" d="M 25 0.5 L 126.08233064767734 0.5 L 126.08233064767734 -0.5 L 25 -0.5 Z M 146.75811189767734 0.5 L 247.84044254535468 0.5 L 247.84044254535468 3.5 L 254.84044254535468 0 L 247.84044254535468 -3.5 L 247.84044254535468 -0.5 L 146.75811189767734 -0.5 Z"/><text text-anchor="middle" pointer-events="none" font-size="8px" fill="#000000" x="136.42022127267734" y="3" transform="rotate(180 136.42022127267734 0)" font-family="sans-serif">is_a</text></g><g class="relationship" transform="translate(-34.731776662741936 -161.75579410040552) rotate(522.5943195600238)"><path class="outline" fill="#A5ABB6" stroke="none" d="M 25 0.5 L 81.2550914353271 0.5 L 81.2550914353271 -0.5 L 25 -0.5 Z M 101.9308726853271 0.5 L 158.1859641206542 0.5 L 158.1859641206542 3.5 L 165.1859641206542 0 L 158.1859641206542 -3.5 L 158.1859641206542 -0.5 L 101.9308726853271 -0.5 Z"/><text text-anchor="middle" pointer-events="none" font-size="8px" fill="#000000" x="91.5929820603271" y="3" transform="rotate(180 91.5929820603271 0)" font-family="sans-serif">is_a</text></g><g class="relationship" transform="translate(-109.93399955056063 100.9421137668051) rotate(242.68888394249126)"><path class="outline" fill="#A5ABB6" stroke="none" d="M 25 0.5 L 101.97528590841469 0.5 L 101.97528590841469 -0.5 L 25 -0.5 Z M 122.65106715841469 0.5 L 199.62635306682938 0.5 L 199.62635306682938 3.5 L 206.62635306682938 0 L 199.62635306682938 -3.5 L 199.62635306682938 -0.5 L 122.65106715841469 -0.5 Z"/><text text-anchor="middle" pointer-events="none" font-size="8px" fill="#000000" x="112.31317653341469" y="3" transform="rotate(180 112.31317653341469 0)" font-family="sans-serif">is_a</text></g><g class="relationship" transform="translate(-87.19210116374082 -132.9798750279649) rotate(527.7062972922656)"><path class="outline" fill="#A5ABB6" stroke="none" d="M 25 0.5 L 52.18464987872677 0.5 L 52.18464987872677 -0.5 L 25 -0.5 Z M 72.86043112872677 0.5 L 100.04508100745355 0.5 L 100.04508100745355 3.5 L 107.04508100745355 0 L 100.04508100745355 -3.5 L 100.04508100745355 -0.5 L 72.86043112872677 -0.5 Z"/><text text-anchor="middle" pointer-events="none" font-size="8px" fill="#000000" x="62.52254050372677" y="3" transform="rotate(180 62.52254050372677 0)" font-family="sans-serif">is_a</text></g><g class="relationship" transform="translate(-208.72504940535373 69.88970442152525) rotate(267.547689297497)"><path class="outline" fill="#A5ABB6" stroke="none" d="M 25 0.5 L 73.61927664262632 0.5 L 73.61927664262632 -0.5 L 25 -0.5 Z M 94.29505789262632 0.5 L 142.91433453525264 0.5 L 142.91433453525264 3.5 L 149.91433453525264 0 L 142.91433453525264 -3.5 L 142.91433453525264 -0.5 L 94.29505789262632 -0.5 Z"/><text text-anchor="middle" pointer-events="none" font-size="8px" fill="#000000" x="83.95716726762632" y="3" transform="rotate(180 83.95716726762632 0)" font-family="sans-serif">is_a</text></g><g class="relationship" transform="translate(-216.26415002856635 5.476496432332967) rotate(270.0285053336176)"><path class="outline" fill="#A5ABB6" stroke="none" d="M 25 0.5 L 41.33258458155253 0.5 L 41.33258458155253 -0.5 L 25 -0.5 Z M 62.00836583155253 0.5 L 78.34095041310506 0.5 L 78.34095041310506 3.5 L 85.34095041310506 0 L 78.34095041310506 -3.5 L 78.34095041310506 -0.5 L 62.00836583155253 -0.5 Z"/><text text-anchor="middle" pointer-events="none" font-size="8px" fill="#000000" x="51.67047520655253" y="3" font-family="sans-serif">is_a</text></g><g class="relationship" transform="translate(-150.40275364168303 56.45423914541201) rotate(247.8080484675948)"><path class="outline" fill="#A5ABB6" stroke="none" d="M 25 0.5 L 73.27441023950288 0.5 L 73.27441023950288 -0.5 L 25 -0.5 Z M 93.95019148950288 0.5 L 142.22460172900577 0.5 L 142.22460172900577 3.5 L 149.22460172900577 0 L 142.22460172900577 -3.5 L 142.22460172900577 -0.5 L 93.95019148950288 -0.5 Z"/><text text-anchor="middle" pointer-events="none" font-size="8px" fill="#000000" x="83.61230086450288" y="3" transform="rotate(180 83.61230086450288 0)" font-family="sans-serif">is_a</text></g><g class="relationship" transform="translate(-62.54602352116027 64.3550798557808) rotate(227.75834198260276)"><path class="outline" fill="#A5ABB6" stroke="none" d="M 25 0.5 L 100.45081664712127 0.5 L 100.45081664712127 -0.5 L 25 -0.5 Z M 121.12659789712127 0.5 L 196.57741454424254 0.5 L 196.57741454424254 3.5 L 203.57741454424254 0 L 196.57741454424254 -3.5 L 196.57741454424254 -0.5 L 121.12659789712127 -0.5 Z"/><text text-anchor="middle" pointer-events="none" font-size="8px" fill="#000000" x="110.78870727212127" y="3" transform="rotate(180 110.78870727212127 0)" font-family="sans-serif">is_a</text></g><g class="relationship" transform="translate(-189.30456969421488 -219.6590612438998) rotate(463.1904664654847)"><path class="outline" fill="#A5ABB6" stroke="none" d="M 25 0.5 L 45.11477478218039 0.5 L 45.11477478218039 -0.5 L 25 -0.5 Z M 65.79055603218039 0.5 L 85.90533081436078 0.5 L 85.90533081436078 3.5 L 92.90533081436078 0 L 85.90533081436078 -3.5 L 85.90533081436078 -0.5 L 65.79055603218039 -0.5 Z"/><text text-anchor="middle" pointer-events="none" font-size="8px" fill="#000000" x="55.45266540718039" y="3" transform="rotate(180 55.45266540718039 0)" font-family="sans-serif">is_a</text></g><g class="relationship" transform="translate(-51.83981450637185 -19.10892225186976) rotate(207.5521401742722)"><path class="outline" fill="#A5ABB6" stroke="none" d="M 25 0.5 L 78.85963030965387 0.5 L 78.85963030965387 -0.5 L 25 -0.5 Z M 99.53541155965387 0.5 L 153.39504186930773 0.5 L 153.39504186930773 3.5 L 160.39504186930773 0 L 153.39504186930773 -3.5 L 153.39504186930773 -0.5 L 99.53541155965387 -0.5 Z"/><text text-anchor="middle" pointer-events="none" font-size="8px" fill="#000000" x="89.19752093465387" y="3" transform="rotate(180 89.19752093465387 0)" font-family="sans-serif">is_a</text></g><g class="relationship" transform="translate(-168.55658334669533 114.23509559823053) rotate(257.72964876928904)"><path class="outline" fill="#A5ABB6" stroke="none" d="M 25 0.5 L 98.27297378048212 0.5 L 98.27297378048212 -0.5 L 25 -0.5 Z M 118.94875503048212 0.5 L 192.22172881096424 0.5 L 192.22172881096424 3.5 L 199.22172881096424 0 L 192.22172881096424 -3.5 L 192.22172881096424 -0.5 L 118.94875503048212 -0.5 Z"/><text text-anchor="middle" pointer-events="none" font-size="8px" fill="#000000" x="108.61086440548212" y="3" transform="rotate(180 108.61086440548212 0)" font-family="sans-serif">is_a</text></g><g class="relationship" transform="translate(-381.3776921593813 -136.7831908125356) rotate(370.93756594792654)"><path class="outline" fill="#A5ABB6" stroke="none" d="M 25 0.5 L 70.27426599679058 0.5 L 70.27426599679058 -0.5 L 25 -0.5 Z M 90.95004724679058 0.5 L 136.22431324358115 0.5 L 136.22431324358115 3.5 L 143.22431324358115 0 L 136.22431324358115 -3.5 L 136.22431324358115 -0.5 L 90.95004724679058 -0.5 Z"/><text text-anchor="middle" pointer-events="none" font-size="8px" fill="#000000" x="80.61215662179058" y="3" font-family="sans-serif">is_a</text></g><g class="relationship" transform="translate(-347.5295718739277 52.75609963063765) rotate(309.79910631018873)"><path class="outline" fill="#A5ABB6" stroke="none" d="M 25 0.5 L 88.74044587723039 0.5 L 88.74044587723039 -0.5 L 25 -0.5 Z M 109.41622712723039 0.5 L 173.15667300446077 0.5 L 173.15667300446077 3.5 L 180.15667300446077 0 L 173.15667300446077 -3.5 L 173.15667300446077 -0.5 L 109.41622712723039 -0.5 Z"/><text text-anchor="middle" pointer-events="none" font-size="8px" fill="#000000" x="99.07833650223039" y="3" font-family="sans-serif">is_a</text></g><g class="relationship" transform="translate(-74.67300996263533 -206.20109635936623) rotate(504.39821822099236)"><path class="outline" fill="#A5ABB6" stroke="none" d="M 25 0.5 L 73.19892092402091 0.5 L 73.19892092402091 -0.5 L 25 -0.5 Z M 93.87470217402091 0.5 L 142.07362309804182 0.5 L 142.07362309804182 3.5 L 149.07362309804182 0 L 142.07362309804182 -3.5 L 142.07362309804182 -0.5 L 93.87470217402091 -0.5 Z"/><text text-anchor="middle" pointer-events="none" font-size="8px" fill="#000000" x="83.53681154902091" y="3" transform="rotate(180 83.53681154902091 0)" font-family="sans-serif">is_a</text></g><g class="relationship" transform="translate(-142.70953411821688 -182.05988286563397) rotate(493.59513162306416)"><path class="outline" fill="#A5ABB6" stroke="none" d="M 25 0.5 L 39.456914903464195 0.5 L 39.456914903464195 -0.5 L 25 -0.5 Z M 60.132696153464195 0.5 L 74.58961105692839 0.5 L 74.58961105692839 3.5 L 81.58961105692839 0 L 74.58961105692839 -3.5 L 74.58961105692839 -0.5 L 60.132696153464195 -0.5 Z"/><text text-anchor="middle" pointer-events="none" font-size="8px" fill="#000000" x="49.794805528464195" y="3" transform="rotate(180 49.794805528464195 0)" font-family="sans-serif">is_a</text></g><g class="relationship" transform="translate(-157.71467057992788 -7.1130811809969074) rotate(239.10362439398114)"><path class="outline" fill="#A5ABB6" stroke="none" d="M 25 0.5 L 43.12030570084707 0.5 L 43.12030570084707 -0.5 L 25 -0.5 Z M 63.79608695084707 0.5 L 81.91639265169414 0.5 L 81.91639265169414 3.5 L 88.91639265169414 0 L 81.91639265169414 -3.5 L 81.91639265169414 -0.5 L 63.79608695084707 -0.5 Z"/><text text-anchor="middle" pointer-events="none" font-size="8px" fill="#000000" x="53.45819632584707" y="3" transform="rotate(180 53.45819632584707 0)" font-family="sans-serif">is_a</text></g><g class="relationship" transform="translate(-383.608183077763 4.891783602189297) rotate(326.7488804874512)"><path class="outline" fill="#A5ABB6" stroke="none" d="M 25 0.5 L 86.24811003983929 0.5 L 86.24811003983929 -0.5 L 25 -0.5 Z M 106.92389128983929 0.5 L 168.17200132967858 0.5 L 168.17200132967858 3.5 L 175.17200132967858 0 L 168.17200132967858 -3.5 L 168.17200132967858 -0.5 L 106.92389128983929 -0.5 Z"/><text text-anchor="middle" pointer-events="none" font-size="8px" fill="#000000" x="96.58600066483929" y="3" font-family="sans-serif">is_a</text></g><g class="relationship" transform="translate(-383.608183077763 4.891783602189297) rotate(476.9745819309627)"><path class="outline" fill="#A5ABB6" stroke="none" d="M 25 0.5 L 61.251996133517494 0.5 L 61.251996133517494 -0.5 L 25 -0.5 Z M 93.4941836335175 0.5 L 129.746179767035 0.5 L 129.746179767035 3.5 L 136.746179767035 0 L 129.746179767035 -3.5 L 129.746179767035 -0.5 L 93.4941836335175 -0.5 Z"/><text text-anchor="middle" pointer-events="none" font-size="8px" fill="#000000" x="77.3730898835175" y="3" transform="rotate(180 77.3730898835175 0)" font-family="sans-serif">type_of</text></g><g class="relationship" transform="translate(-347.5295718739277 52.75609963063765) rotate(498.66026145159043)"><path class="outline" fill="#A5ABB6" stroke="none" d="M 25 0.5 L 53.26449179885424 0.5 L 53.26449179885424 -0.5 L 25 -0.5 Z M 85.50667929885424 0.5 L 113.77117109770847 0.5 L 113.77117109770847 3.5 L 120.77117109770847 0 L 113.77117109770847 -3.5 L 113.77117109770847 -0.5 L 85.50667929885424 -0.5 Z"/><text text-anchor="middle" pointer-events="none" font-size="8px" fill="#000000" x="69.38558554885424" y="3" transform="rotate(180 69.38558554885424 0)" font-family="sans-serif">type_of</text></g><g class="relationship" transform="translate(-372.4064261798985 -196.00912282575354) rotate(518.9991347947768)"><path class="outline" fill="#A5ABB6" stroke="none" d="M 25 0.5 L 53.73121375281333 0.5 L 53.73121375281333 -0.5 L 25 -0.5 Z M 85.97340125281333 0.5 L 114.70461500562666 0.5 L 114.70461500562666 3.5 L 121.70461500562666 0 L 114.70461500562666 -3.5 L 114.70461500562666 -0.5 L 85.97340125281333 -0.5 Z"/><text text-anchor="middle" pointer-events="none" font-size="8px" fill="#000000" x="69.85230750281333" y="3" transform="rotate(180 69.85230750281333 0)" font-family="sans-serif">type_of</text></g><g class="relationship" transform="translate(-381.3776921593813 -136.7831908125356) rotate(182.97412336545187)"><path class="outline" fill="#A5ABB6" stroke="none" d="M 25 0.5 L 44.459466882134805 0.5 L 44.459466882134805 -0.5 L 25 -0.5 Z M 76.7016543821348 0.5 L 96.16112126426961 0.5 L 96.16112126426961 3.5 L 103.16112126426961 0 L 96.16112126426961 -3.5 L 96.16112126426961 -0.5 L 76.7016543821348 -0.5 Z"/><text text-anchor="middle" pointer-events="none" font-size="8px" fill="#000000" x="60.580560632134805" y="3" transform="rotate(180 60.580560632134805 0)" font-family="sans-serif">type_of</text></g><g class="relationship" transform="translate(-394.8764166067097 -78.36434949952707) rotate(209.6110578787738)"><path class="outline" fill="#A5ABB6" stroke="none" d="M 25 0.5 L 46.22306741746283 0.5 L 46.22306741746283 -0.5 L 25 -0.5 Z M 78.46525491746283 0.5 L 99.68832233492566 0.5 L 99.68832233492566 3.5 L 106.68832233492566 0 L 99.68832233492566 -3.5 L 99.68832233492566 -0.5 L 78.46525491746283 -0.5 Z"/><text text-anchor="middle" pointer-events="none" font-size="8px" fill="#000000" x="62.34416116746283" y="3" transform="rotate(180 62.34416116746283 0)" font-family="sans-serif">type_of</text></g><g class="relationship" transform="translate(194.44957083471996 50.853629459107296) rotate(530.8578726903498)"><path class="outline" fill="#A5ABB6" stroke="none" d="M 25 0.5 L 65.91239916917088 0.5 L 65.91239916917088 -0.5 L 25 -0.5 Z M 98.15458666917088 0.5 L 139.06698583834176 0.5 L 139.06698583834176 3.5 L 146.06698583834176 0 L 139.06698583834176 -3.5 L 139.06698583834176 -0.5 L 98.15458666917088 -0.5 Z"/><text text-anchor="middle" pointer-events="none" font-size="8px" fill="#000000" x="82.03349291917088" y="3" transform="rotate(180 82.03349291917088 0)" font-family="sans-serif">type_of</text></g><g class="relationship" transform="translate(180.89159533487003 -7.556879720106923) rotate(511.1451816770079)"><path class="outline" fill="#A5ABB6" stroke="none" d="M 25 0.5 L 69.05665541050604 0.5 L 69.05665541050604 -0.5 L 25 -0.5 Z M 101.29884291050604 0.5 L 145.35549832101208 0.5 L 145.35549832101208 3.5 L 152.35549832101208 0 L 145.35549832101208 -3.5 L 145.35549832101208 -0.5 L 101.29884291050604 -0.5 Z"/><text text-anchor="middle" pointer-events="none" font-size="8px" fill="#000000" x="85.17774916050604" y="3" transform="rotate(180 85.17774916050604 0)" font-family="sans-serif">type_of</text></g><g class="relationship" transform="translate(251.641040196672 67.98452362984487) rotate(537.45502451487)"><path class="outline" fill="#A5ABB6" stroke="none" d="M 25 0.5 L 93.5332305556104 0.5 L 93.5332305556104 -0.5 L 25 -0.5 Z M 125.7754180556104 0.5 L 194.3086486112208 0.5 L 194.3086486112208 3.5 L 201.3086486112208 0 L 194.3086486112208 -3.5 L 194.3086486112208 -0.5 L 125.7754180556104 -0.5 Z"/><text text-anchor="middle" pointer-events="none" font-size="8px" fill="#000000" x="109.6543243056104" y="3" transform="rotate(180 109.6543243056104 0)" font-family="sans-serif">type_of</text></g><g class="relationship" transform="translate(209.82590396945025 110.85404268099676) rotate(190.09911445242483)"><path class="outline" fill="#A5ABB6" stroke="none" d="M 25 0.5 L 73.96407423606752 0.5 L 73.96407423606752 -0.5 L 25 -0.5 Z M 106.20626173606752 0.5 L 155.17033597213504 0.5 L 155.17033597213504 3.5 L 162.17033597213504 0 L 155.17033597213504 -3.5 L 155.17033597213504 -0.5 L 106.20626173606752 -0.5 Z"/><text text-anchor="middle" pointer-events="none" font-size="8px" fill="#000000" x="90.08516798606752" y="3" transform="rotate(180 90.08516798606752 0)" font-family="sans-serif">type_of</text></g><g class="relationship" transform="translate(238.037528661908 9.762677833154795) rotate(522.187709414808)"><path class="outline" fill="#A5ABB6" stroke="none" d="M 25 0.5 L 91.96907693215529 0.5 L 91.96907693215529 -0.5 L 25 -0.5 Z M 124.21126443215529 0.5 L 191.18034136431058 0.5 L 191.18034136431058 3.5 L 198.18034136431058 0 L 191.18034136431058 -3.5 L 191.18034136431058 -0.5 L 124.21126443215529 -0.5 Z"/><text text-anchor="middle" pointer-events="none" font-size="8px" fill="#000000" x="108.09017068215529" y="3" transform="rotate(180 108.09017068215529 0)" font-family="sans-serif">type_of</text></g><g class="relationship" transform="translate(-150.40275364168303 56.45423914541201) rotate(366.99173406589415)"><path class="outline" fill="#A5ABB6" stroke="none" d="M 25 0.5 L 69.01722501039383 0.5 L 69.01722501039383 -0.5 L 25 -0.5 Z M 101.25941251039383 0.5 L 145.27663752078766 0.5 L 145.27663752078766 3.5 L 152.27663752078766 0 L 145.27663752078766 -3.5 L 145.27663752078766 -0.5 L 101.25941251039383 -0.5 Z"/><text text-anchor="middle" pointer-events="none" font-size="8px" fill="#000000" x="85.13831876039383" y="3" font-family="sans-serif">type_of</text></g><g class="relationship" transform="translate(-168.55658334669533 114.23509559823053) rotate(349.4357814444834)"><path class="outline" fill="#A5ABB6" stroke="none" d="M 25 0.5 L 79.10846323731016 0.5 L 79.10846323731016 -0.5 L 25 -0.5 Z M 111.35065073731016 0.5 L 165.45911397462032 0.5 L 165.45911397462032 3.5 L 172.45911397462032 0 L 165.45911397462032 -3.5 L 165.45911397462032 -0.5 L 111.35065073731016 -0.5 Z"/><text text-anchor="middle" pointer-events="none" font-size="8px" fill="#000000" x="95.22955698731016" y="3" font-family="sans-serif">type_of</text></g><g class="relationship" transform="translate(-208.72504940535373 69.88970442152525) rotate(361.99083436013734)"><path class="outline" fill="#A5ABB6" stroke="none" d="M 25 0.5 L 97.58998275543473 0.5 L 97.58998275543473 -0.5 L 25 -0.5 Z M 129.83217025543473 0.5 L 202.42215301086947 0.5 L 202.42215301086947 3.5 L 209.42215301086947 0 L 202.42215301086947 -3.5 L 202.42215301086947 -0.5 L 129.83217025543473 -0.5 Z"/><text text-anchor="middle" pointer-events="none" font-size="8px" fill="#000000" x="113.71107650543473" y="3" font-family="sans-serif">type_of</text></g><g class="relationship" transform="translate(209.22245989416186 -218.59600494699143) rotate(512.002859076885)"><path class="outline" fill="#A5ABB6" stroke="none" d="M 25 0.5 L 95.04275304172663 0.5 L 95.04275304172663 -0.5 L 25 -0.5 Z M 127.28494054172663 0.5 L 197.32769358345325 0.5 L 197.32769358345325 3.5 L 204.32769358345325 0 L 197.32769358345325 -3.5 L 197.32769358345325 -0.5 L 127.28494054172663 -0.5 Z"/><text text-anchor="middle" pointer-events="none" font-size="8px" fill="#000000" x="111.16384679172663" y="3" transform="rotate(180 111.16384679172663 0)" font-family="sans-serif">type_of</text></g><g class="relationship" transform="translate(167.64021755499377 -175.4548225670503) rotate(518.1530029069863)"><path class="outline" fill="#A5ABB6" stroke="none" d="M 25 0.5 L 67.05784194217395 0.5 L 67.05784194217395 -0.5 L 25 -0.5 Z M 99.30002944217395 0.5 L 141.3578713843479 0.5 L 141.3578713843479 3.5 L 148.3578713843479 0 L 141.3578713843479 -3.5 L 141.3578713843479 -0.5 L 99.30002944217395 -0.5 Z"/><text text-anchor="middle" pointer-events="none" font-size="8px" fill="#000000" x="83.17893569217395" y="3" transform="rotate(180 83.17893569217395 0)" font-family="sans-serif">type_of</text></g><g class="relationship" transform="translate(225.564190960245 -160.91346121967436) rotate(527.1370500828575)"><path class="outline" fill="#A5ABB6" stroke="none" d="M 25 0.5 L 92.61105130552295 0.5 L 92.61105130552295 -0.5 L 25 -0.5 Z M 124.85323880552295 0.5 L 192.4642901110459 0.5 L 192.4642901110459 3.5 L 199.4642901110459 0 L 192.4642901110459 -3.5 L 192.4642901110459 -0.5 L 124.85323880552295 -0.5 Z"/><text text-anchor="middle" pointer-events="none" font-size="8px" fill="#000000" x="108.73214505552295" y="3" transform="rotate(180 108.73214505552295 0)" font-family="sans-serif">type_of</text></g><g class="relationship" transform="translate(-133.3777692912314 -241.22963624763327) rotate(402.9192227957036)"><path class="outline" fill="#A5ABB6" stroke="none" d="M 25 0.5 L 76.04171696250599 0.5 L 76.04171696250599 -0.5 L 25 -0.5 Z M 108.28390446250599 0.5 L 159.32562142501197 0.5 L 159.32562142501197 3.5 L 166.32562142501197 0 L 159.32562142501197 -3.5 L 159.32562142501197 -0.5 L 108.28390446250599 -0.5 Z"/><text text-anchor="middle" pointer-events="none" font-size="8px" fill="#000000" x="92.16281071250599" y="3" font-family="sans-serif">type_of</text></g><g class="relationship" transform="translate(-142.70953411821688 -182.05988286563397) rotate(385.44884531610165)"><path class="outline" fill="#A5ABB6" stroke="none" d="M 25 0.5 L 63.1293873995627 0.5 L 63.1293873995627 -0.5 L 25 -0.5 Z M 95.3715748995627 0.5 L 133.5009622991254 0.5 L 133.5009622991254 3.5 L 140.5009622991254 0 L 133.5009622991254 -3.5 L 133.5009622991254 -0.5 L 95.3715748995627 -0.5 Z"/><text text-anchor="middle" pointer-events="none" font-size="8px" fill="#000000" x="79.2504811495627" y="3" font-family="sans-serif">type_of</text></g><g class="relationship" transform="translate(-189.30456969421488 -219.6590612438998) rotate(389.0112938859792)"><path class="outline" fill="#A5ABB6" stroke="none" d="M 25 0.5 L 92.46118987760384 0.5 L 92.46118987760384 -0.5 L 25 -0.5 Z M 124.70337737760384 0.5 L 192.1645672552077 0.5 L 192.1645672552077 3.5 L 199.1645672552077 0 L 192.1645672552077 -3.5 L 192.1645672552077 -0.5 L 124.70337737760384 -0.5 Z"/><text text-anchor="middle" pointer-events="none" font-size="8px" fill="#000000" x="108.58228362760384" y="3" font-family="sans-serif">type_of</text></g><g class="relationship" transform="translate(339.939380141155 123.01629357955089) rotate(181.23368497672334)"><path class="outline" fill="#A5ABB6" stroke="none" d="M 25 0.5 L 89.49295343522508 0.5 L 89.49295343522508 -0.5 L 25 -0.5 Z M 121.73514093522508 0.5 L 186.22809437045015 0.5 L 186.22809437045015 3.5 L 193.22809437045015 0 L 186.22809437045015 -3.5 L 186.22809437045015 -0.5 L 121.73514093522508 -0.5 Z"/><text text-anchor="middle" pointer-events="none" font-size="8px" fill="#000000" x="105.61404718522508" y="3" transform="rotate(180 105.61404718522508 0)" font-family="sans-serif">type_of</text></g><g class="relationship" transform="translate(280.019345677353 120.94198424675821) rotate(180.94997706437192)"><path class="outline" fill="#A5ABB6" stroke="none" d="M 25 0.5 L 59.51852103478846 0.5 L 59.51852103478846 -0.5 L 25 -0.5 Z M 91.76070853478846 0.5 L 126.27922956957693 0.5 L 126.27922956957693 3.5 L 133.27922956957693 0 L 126.27922956957693 -3.5 L 126.27922956957693 -0.5 L 91.76070853478846 -0.5 Z"/><text text-anchor="middle" pointer-events="none" font-size="8px" fill="#000000" x="75.63961478478846" y="3" transform="rotate(180 75.63961478478846 0)" font-family="sans-serif">type_of</text></g><g class="relationship" transform="translate(311.74759222602023 70.15442744393248) rotate(525.7746092459807)"><path class="outline" fill="#A5ABB6" stroke="none" d="M 25 0.5 L 78.37671803779051 0.5 L 78.37671803779051 -0.5 L 25 -0.5 Z M 110.61890553779051 0.5 L 163.99562357558102 0.5 L 163.99562357558102 3.5 L 170.99562357558102 0 L 163.99562357558102 -3.5 L 163.99562357558102 -0.5 L 110.61890553779051 -0.5 Z"/><text text-anchor="middle" pointer-events="none" font-size="8px" fill="#000000" x="94.49781178779051" y="3" transform="rotate(180 94.49781178779051 0)" font-family="sans-serif">type_of</text></g><g class="relationship" transform="translate(371.59879917916976 72.27927891636176) rotate(529.558991771323)"><path class="outline" fill="#A5ABB6" stroke="none" d="M 25 0.5 L 107.40059317536122 0.5 L 107.40059317536122 -0.5 L 25 -0.5 Z M 139.64278067536122 0.5 L 222.04337385072245 0.5 L 222.04337385072245 3.5 L 229.04337385072245 0 L 222.04337385072245 -3.5 L 222.04337385072245 -0.5 L 139.64278067536122 -0.5 Z"/><text text-anchor="middle" pointer-events="none" font-size="8px" fill="#000000" x="123.52168692536122" y="3" transform="rotate(180 123.52168692536122 0)" font-family="sans-serif">type_of</text></g><g class="relationship" transform="translate(308.0910933247862 173.67822358359348) rotate(196.54725327514507)"><path class="outline" fill="#A5ABB6" stroke="none" d="M 25 0.5 L 77.56861194305428 0.5 L 77.56861194305428 -0.5 L 25 -0.5 Z M 109.81079944305428 0.5 L 162.37941138610856 0.5 L 162.37941138610856 3.5 L 169.37941138610856 0 L 162.37941138610856 -3.5 L 162.37941138610856 -0.5 L 109.81079944305428 -0.5 Z"/><text text-anchor="middle" pointer-events="none" font-size="8px" fill="#000000" x="93.68970569305428" y="3" transform="rotate(180 93.68970569305428 0)" font-family="sans-serif">type_of</text></g><g class="relationship" transform="translate(-62.54602352116027 64.3550798557808) rotate(376.31927696462634)"><path class="outline" fill="#A5ABB6" stroke="none" d="M 25 0.5 L 76.4015275047394 0.5 L 76.4015275047394 -0.5 L 25 -0.5 Z M 108.6437150047394 0.5 L 160.0452425094788 0.5 L 160.0452425094788 3.5 L 167.0452425094788 0 L 160.0452425094788 -3.5 L 160.0452425094788 -0.5 L 108.6437150047394 -0.5 Z"/><text text-anchor="middle" pointer-events="none" font-size="8px" fill="#000000" x="92.5226212547394" y="3" font-family="sans-serif">type_of</text></g><g class="relationship" transform="translate(-54.781840851889115 123.72222494339658) rotate(358.246586465198)"><path class="outline" fill="#A5ABB6" stroke="none" d="M 25 0.5 L 68.69211330010491 0.5 L 68.69211330010491 -0.5 L 25 -0.5 Z M 100.93430080010491 0.5 L 144.62641410020981 0.5 L 144.62641410020981 3.5 L 151.62641410020981 0 L 144.62641410020981 -3.5 L 144.62641410020981 -0.5 L 100.93430080010491 -0.5 Z"/><text text-anchor="middle" pointer-events="none" font-size="8px" fill="#000000" x="84.81320705010491" y="3" font-family="sans-serif">type_of</text></g><g class="relationship" transform="translate(-109.93399955056063 100.9421137668051) rotate(364.28878317842884)"><path class="outline" fill="#A5ABB6" stroke="none" d="M 25 0.5 L 96.5521508547364 0.5 L 96.5521508547364 -0.5 L 25 -0.5 Z M 128.7943383547364 0.5 L 200.3464892094728 0.5 L 200.3464892094728 3.5 L 207.3464892094728 0 L 200.3464892094728 -3.5 L 200.3464892094728 -0.5 L 128.7943383547364 -0.5 Z"/><text text-anchor="middle" pointer-events="none" font-size="8px" fill="#000000" x="112.6732446047364" y="3" font-family="sans-serif">type_of</text></g><g class="relationship" transform="translate(325.8422694049234 -191.72995917389542) rotate(511.6120629333429)"><path class="outline" fill="#A5ABB6" stroke="none" d="M 25 0.5 L 102.76592336372434 0.5 L 102.76592336372434 -0.5 L 25 -0.5 Z M 135.00811086372434 0.5 L 212.77403422744868 0.5 L 212.77403422744868 3.5 L 219.77403422744868 0 L 212.77403422744868 -3.5 L 212.77403422744868 -0.5 L 135.00811086372434 -0.5 Z"/><text text-anchor="middle" pointer-events="none" font-size="8px" fill="#000000" x="118.88701711372434" y="3" transform="rotate(180 118.88701711372434 0)" font-family="sans-serif">type_of</text></g><g class="relationship" transform="translate(284.3377798899854 -148.51284082097766) rotate(517.1763531689953)"><path class="outline" fill="#A5ABB6" stroke="none" d="M 25 0.5 L 74.679955608023 0.5 L 74.679955608023 -0.5 L 25 -0.5 Z M 106.922143108023 0.5 L 156.602098716046 0.5 L 156.602098716046 3.5 L 163.602098716046 0 L 156.602098716046 -3.5 L 156.602098716046 -0.5 L 106.922143108023 -0.5 Z"/><text text-anchor="middle" pointer-events="none" font-size="8px" fill="#000000" x="90.801049358023" y="3" transform="rotate(180 90.801049358023 0)" font-family="sans-serif">type_of</text></g><g class="relationship" transform="translate(268.4841481699199 -208.7303643461328) rotate(499.82734775566917)"><path class="outline" fill="#A5ABB6" stroke="none" d="M 25 0.5 L 83.75587446150523 0.5 L 83.75587446150523 -0.5 L 25 -0.5 Z M 115.99806196150523 0.5 L 174.75393642301046 0.5 L 174.75393642301046 3.5 L 181.75393642301046 0 L 174.75393642301046 -3.5 L 174.75393642301046 -0.5 L 115.99806196150523 -0.5 Z"/><text text-anchor="middle" pointer-events="none" font-size="8px" fill="#000000" x="99.87696821150523" y="3" transform="rotate(180 99.87696821150523 0)" font-family="sans-serif">type_of</text></g><g class="relationship" transform="translate(-34.731776662741936 -161.75579410040552) rotate(390.7487070528192)"><path class="outline" fill="#A5ABB6" stroke="none" d="M 25 0.5 L 64.87470376638602 0.5 L 64.87470376638602 -0.5 L 25 -0.5 Z M 97.11689126638602 0.5 L 136.99159503277204 0.5 L 136.99159503277204 3.5 L 143.99159503277204 0 L 136.99159503277204 -3.5 L 136.99159503277204 -0.5 L 97.11689126638602 -0.5 Z"/><text text-anchor="middle" pointer-events="none" font-size="8px" fill="#000000" x="80.99579751638602" y="3" font-family="sans-serif">type_of</text></g><g class="relationship" transform="translate(-74.67300996263533 -206.20109635936623) rotate(395.24526465984127)"><path class="outline" fill="#A5ABB6" stroke="none" d="M 25 0.5 L 93.74861383352697 0.5 L 93.74861383352697 -0.5 L 25 -0.5 Z M 125.99080133352697 0.5 L 194.73941516705395 0.5 L 194.73941516705395 3.5 L 201.73941516705395 0 L 194.73941516705395 -3.5 L 194.73941516705395 -0.5 L 125.99080133352697 -0.5 Z"/><text text-anchor="middle" pointer-events="none" font-size="8px" fill="#000000" x="109.86970758352697" y="3" font-family="sans-serif">type_of</text></g><g class="relationship" transform="translate(-87.19210116374082 -132.9798750279649) rotate(376.25060834887455)"><path class="outline" fill="#A5ABB6" stroke="none" d="M 25 0.5 L 83.33988555203246 0.5 L 83.33988555203246 -0.5 L 25 -0.5 Z M 115.58207305203246 0.5 L 173.9219586040649 0.5 L 173.9219586040649 3.5 L 180.9219586040649 0 L 173.9219586040649 -3.5 L 173.9219586040649 -0.5 L 115.58207305203246 -0.5 Z"/><text text-anchor="middle" pointer-events="none" font-size="8px" fill="#000000" x="99.46097930203246" y="3" font-family="sans-serif">type_of</text></g><g class="relationship" transform="translate(351.90939263386787 15.591351030404374) rotate(181.88257294377922)"><path class="outline" fill="#A5ABB6" stroke="none" d="M 25 0.5 L 97.63080887399906 0.5 L 97.63080887399906 -0.5 L 25 -0.5 Z M 129.87299637399906 0.5 L 202.50380524799812 0.5 L 202.50380524799812 3.5 L 209.50380524799812 0 L 202.50380524799812 -3.5 L 202.50380524799812 -0.5 L 129.87299637399906 -0.5 Z"/><text text-anchor="middle" pointer-events="none" font-size="8px" fill="#000000" x="113.75190262399906" y="3" transform="rotate(180 113.75190262399906 0)" font-family="sans-serif">type_of</text></g><g class="relationship" transform="translate(281.92117197976984 -64.27431839654899) rotate(516.2999385066478)"><path class="outline" fill="#A5ABB6" stroke="none" d="M 25 0.5 L 70.14400683834351 0.5 L 70.14400683834351 -0.5 L 25 -0.5 Z M 102.38619433834351 0.5 L 147.53020117668703 0.5 L 147.53020117668703 3.5 L 154.53020117668703 0 L 147.53020117668703 -3.5 L 147.53020117668703 -0.5 L 102.38619433834351 -0.5 Z"/><text text-anchor="middle" pointer-events="none" font-size="8px" fill="#000000" x="86.26510058834351" y="3" transform="rotate(180 86.26510058834351 0)" font-family="sans-serif">type_of</text></g><g class="relationship" transform="translate(296.0778113220076 -6.024008479030593) rotate(535.544721378905)"><path class="outline" fill="#A5ABB6" stroke="none" d="M 25 0.5 L 69.92230796343978 0.5 L 69.92230796343978 -0.5 L 25 -0.5 Z M 102.16449546343978 0.5 L 147.08680342687956 0.5 L 147.08680342687956 3.5 L 154.08680342687956 0 L 147.08680342687956 -3.5 L 147.08680342687956 -0.5 L 102.16449546343978 -0.5 Z"/><text text-anchor="middle" pointer-events="none" font-size="8px" fill="#000000" x="86.04340171343978" y="3" transform="rotate(180 86.04340171343978 0)" font-family="sans-serif">type_of</text></g><g class="relationship" transform="translate(-51.83981450637185 -19.10892225186976) rotate(369.0563099656732)"><path class="outline" fill="#A5ABB6" stroke="none" d="M 25 0.5 L 66.13390488161883 0.5 L 66.13390488161883 -0.5 L 25 -0.5 Z M 98.37609238161883 0.5 L 139.50999726323766 0.5 L 139.50999726323766 3.5 L 146.50999726323766 0 L 139.50999726323766 -3.5 L 139.50999726323766 -0.5 L 98.37609238161883 -0.5 Z"/><text text-anchor="middle" pointer-events="none" font-size="8px" fill="#000000" x="82.25499863161883" y="3" font-family="sans-serif">type_of</text></g><g class="relationship" transform="translate(-99.44961771886841 17.098244385257892) rotate(357.56932082541107)"><path class="outline" fill="#A5ABB6" stroke="none" d="M 25 0.5 L 88.96749604280846 0.5 L 88.96749604280846 -0.5 L 25 -0.5 Z M 121.20968354280846 0.5 L 185.17717958561693 0.5 L 185.17717958561693 3.5 L 192.17717958561693 0 L 185.17717958561693 -3.5 L 185.17717958561693 -0.5 L 121.20968354280846 -0.5 Z"/><text text-anchor="middle" pointer-events="none" font-size="8px" fill="#000000" x="105.08858979280846" y="3" font-family="sans-serif">type_of</text></g><g class="relationship" transform="translate(-63.520750467091716 -77.79193379405922) rotate(385.3248881459719)"><path class="outline" fill="#A5ABB6" stroke="none" d="M 25 0.5 L 80.53022029910831 0.5 L 80.53022029910831 -0.5 L 25 -0.5 Z M 112.77240779910831 0.5 L 168.30262809821662 0.5 L 168.30262809821662 3.5 L 175.30262809821662 0 L 168.30262809821662 -3.5 L 168.30262809821662 -0.5 L 112.77240779910831 -0.5 Z"/><text text-anchor="middle" pointer-events="none" font-size="8px" fill="#000000" x="96.65131404910831" y="3" font-family="sans-serif">type_of</text></g><g class="relationship" transform="translate(-157.71467057992788 -7.1130811809969074) rotate(353.9920099823398)"><path class="outline" fill="#A5ABB6" stroke="none" d="M 25 0.5 L 68.65723080011222 0.5 L 68.65723080011222 -0.5 L 25 -0.5 Z M 100.89941830011222 0.5 L 144.55664910022443 0.5 L 144.55664910022443 3.5 L 151.55664910022443 0 L 144.55664910022443 -3.5 L 144.55664910022443 -0.5 L 100.89941830011222 -0.5 Z"/><text text-anchor="middle" pointer-events="none" font-size="8px" fill="#000000" x="84.77832455011222" y="3" font-family="sans-serif">type_of</text></g><g class="relationship" transform="translate(-216.26415002856635 5.476496432332967) rotate(352.44116593528656)"><path class="outline" fill="#A5ABB6" stroke="none" d="M 25 0.5 L 98.47328876078777 0.5 L 98.47328876078777 -0.5 L 25 -0.5 Z M 130.71547626078777 0.5 L 204.18876502157553 0.5 L 204.18876502157553 3.5 L 211.18876502157553 0 L 204.18876502157553 -3.5 L 204.18876502157553 -0.5 L 130.71547626078777 -0.5 Z"/><text text-anchor="middle" pointer-events="none" font-size="8px" fill="#000000" x="114.59438251078777" y="3" font-family="sans-serif">type_of</text></g><g class="relationship" transform="translate(195.9641695721705 -108.75387324631998) rotate(514.9694949435171)"><path class="outline" fill="#A5ABB6" stroke="none" d="M 25 0.5 L 78.6546882687738 0.5 L 78.6546882687738 -0.5 L 25 -0.5 Z M 110.8968757687738 0.5 L 164.5515640375476 0.5 L 164.5515640375476 3.5 L 171.5515640375476 0 L 164.5515640375476 -3.5 L 164.5515640375476 -0.5 L 110.8968757687738 -0.5 Z"/><text text-anchor="middle" pointer-events="none" font-size="8px" fill="#000000" x="94.7757820187738" y="3" transform="rotate(180 94.7757820187738 0)" font-family="sans-serif">type_of</text></g><g class="relationship" transform="translate(-137.48693040453676 -63.55454601823092) rotate(373.73108483225883)"><path class="outline" fill="#A5ABB6" stroke="none" d="M 25 0.5 L 60.34383403825831 0.5 L 60.34383403825831 -0.5 L 25 -0.5 Z M 92.58602153825831 0.5 L 127.92985557651662 0.5 L 127.92985557651662 3.5 L 134.92985557651662 0 L 127.92985557651662 -3.5 L 127.92985557651662 -0.5 L 92.58602153825831 -0.5 Z"/><text text-anchor="middle" pointer-events="none" font-size="8px" fill="#000000" x="76.46492778825831" y="3" font-family="sans-serif">type_of</text></g><g class="relationship" transform="translate(219.92848632786954 -53.90561222779541) rotate(532.0234450757622)"><path class="outline" fill="#A5ABB6" stroke="none" d="M 25 0.5 L 82.39404889087604 0.5 L 82.39404889087604 -0.5 L 25 -0.5 Z M 114.63623639087604 0.5 L 172.03028528175207 0.5 L 172.03028528175207 3.5 L 179.03028528175207 0 L 172.03028528175207 -3.5 L 172.03028528175207 -0.5 L 114.63623639087604 -0.5 Z"/><text text-anchor="middle" pointer-events="none" font-size="8px" fill="#000000" x="98.51514264087604" y="3" transform="rotate(180 98.51514264087604 0)" font-family="sans-serif">type_of</text></g><g class="relationship" transform="translate(533.3855625992137 -153.9782889282346) rotate(345.2854862250972)"><path class="outline" fill="#A5ABB6" stroke="none" d="M 25 0.5 L 45.718315558469996 0.5 L 45.718315558469996 -0.5 L 25 -0.5 Z M 77.96050305847 0.5 L 98.67881861693999 0.5 L 98.67881861693999 3.5 L 105.67881861693999 0 L 98.67881861693999 -3.5 L 98.67881861693999 -0.5 L 77.96050305847 -0.5 Z"/><text text-anchor="middle" pointer-events="none" font-size="8px" fill="#000000" x="61.839409308469996" y="3" font-family="sans-serif">type_of</text></g><g class="relationship" transform="translate(515.721814018478 -211.25681766010368) rotate(369.4918322579291)"><path class="outline" fill="#A5ABB6" stroke="none" d="M 25 0.5 L 53.407102381144455 0.5 L 53.407102381144455 -0.5 L 25 -0.5 Z M 85.64928988114445 0.5 L 114.05639226228891 0.5 L 114.05639226228891 3.5 L 121.05639226228891 0 L 114.05639226228891 -3.5 L 114.05639226228891 -0.5 L 85.64928988114445 -0.5 Z"/><text text-anchor="middle" pointer-events="none" font-size="8px" fill="#000000" x="69.52819613114445" y="3" font-family="sans-serif">type_of</text></g><g class="relationship" transform="translate(558.0087568071918 -99.3348388286218) rotate(319.20293144134604)"><path class="outline" fill="#A5ABB6" stroke="none" d="M 25 0.5 L 47.59553732678451 0.5 L 47.59553732678451 -0.5 L 25 -0.5 Z M 79.83772482678451 0.5 L 102.43326215356902 0.5 L 102.43326215356902 3.5 L 109.43326215356902 0 L 102.43326215356902 -3.5 L 102.43326215356902 -0.5 L 79.83772482678451 -0.5 Z"/><text text-anchor="middle" pointer-events="none" font-size="8px" fill="#000000" x="63.71663107678451" y="3" font-family="sans-serif">type_of</text></g><g class="relationship" transform="translate(515.5416940652536 73.18871693037178) rotate(383.4167009245215)"><path class="outline" fill="#A5ABB6" stroke="none" d="M 25 0.5 L 47.104212926971414 0.5 L 47.104212926971414 -0.5 L 25 -0.5 Z M 79.34640042697141 0.5 L 101.45061335394283 0.5 L 101.45061335394283 3.5 L 108.45061335394283 0 L 101.45061335394283 -3.5 L 101.45061335394283 -0.5 L 79.34640042697141 -0.5 Z"/><text text-anchor="middle" pointer-events="none" font-size="8px" fill="#000000" x="63.225306676971414" y="3" font-family="sans-serif">type_of</text></g><g class="relationship" transform="translate(518.9769563299931 13.402789112162628) rotate(403.46743642685425)"><path class="outline" fill="#A5ABB6" stroke="none" d="M 25 0.5 L 62.37798569598742 0.5 L 62.37798569598742 -0.5 L 25 -0.5 Z M 94.62017319598742 0.5 L 131.99815889197484 0.5 L 131.99815889197484 3.5 L 138.99815889197484 0 L 131.99815889197484 -3.5 L 131.99815889197484 -0.5 L 94.62017319598742 -0.5 Z"/><text text-anchor="middle" pointer-events="none" font-size="8px" fill="#000000" x="78.49907944598742" y="3" font-family="sans-serif">type_of</text></g><g class="relationship" transform="translate(573.4450957667752 -11.381840739665485) rotate(424.8669716427034)"><path class="outline" fill="#A5ABB6" stroke="none" d="M 25 0.5 L 56.37703892222345 0.5 L 56.37703892222345 -0.5 L 25 -0.5 Z M 88.61922642222345 0.5 L 119.9962653444469 0.5 L 119.9962653444469 3.5 L 126.9962653444469 0 L 119.9962653444469 -3.5 L 119.9962653444469 -0.5 L 88.61922642222345 -0.5 Z"/><text text-anchor="middle" pointer-events="none" font-size="8px" fill="#000000" x="72.49813267222345" y="3" font-family="sans-serif">type_of</text></g></g><g class="layer nodes"><g class="node" transform="translate(-216.20925409207354,-104.86444032508028)"><circle class="outline" cx="0" cy="0" r="25" fill="#8DCC93" stroke="#5db665" stroke-width="2px"/><text text-anchor="middle" pointer-events="none" font-family="sans-serif" dy="1.5625" font-size="25" fill="#604A0E"/><text text-anchor="middle" pointer-events="none" y="5" font-size="10px" fill="#604A0E" font-family="sans-serif"> Series</text></g><g class="node" transform="translate(75.56893804522518,-350.1217964448026)"><circle class="outline" cx="0" cy="0" r="25" fill="#ECB5C9" stroke="#da7298" stroke-width="2px"/><text text-anchor="middle" pointer-events="none" font-family="sans-serif" dy="1.5625" font-size="25" fill="#604A0E"/><text text-anchor="middle" pointer-events="none" y="5" font-size="10px" fill="#604A0E" font-family="sans-serif"> Entertai…</text></g><g class="node" transform="translate(373.7359734442741,-92.24187939081733)"><circle class="outline" cx="0" cy="0" r="25" fill="#8DCC93" stroke="#5db665" stroke-width="2px"/><text text-anchor="middle" pointer-events="none" font-family="sans-serif" dy="1.5625" font-size="25" fill="#604A0E"/><text text-anchor="middle" pointer-events="none" y="5" font-size="10px" fill="#604A0E" font-family="sans-serif"> Movie</text></g><g class="node" transform="translate(219.92848632786954,-53.90561222779541)"><circle class="outline" cx="0" cy="0" r="25" fill="#F16667" stroke="#eb2728" stroke-width="2px"/><text text-anchor="middle" pointer-events="none" font-family="sans-serif" dy="1.5625" font-size="25" fill="#FFFFFF"/><text text-anchor="middle" pointer-events="none" font-family="sans-serif" dy="1.5625" font-size="25" fill="#FFFFFF"/><text text-anchor="middle" pointer-events="none" y="0" font-size="10px" fill="#FFFFFF" font-family="sans-serif"> Prince of</text><text text-anchor="middle" pointer-events="none" y="10" font-size="10px" fill="#FFFFFF" font-family="sans-serif"> Persia</text></g><g class="node" transform="translate(195.9641695721705,-108.75387324631998)"><circle class="outline" cx="0" cy="0" r="25" fill="#F16667" stroke="#eb2728" stroke-width="2px"/><text text-anchor="middle" pointer-events="none" font-family="sans-serif" dy="1.5625" font-size="25" fill="#FFFFFF"/><text text-anchor="middle" pointer-events="none" y="5" font-size="10px" fill="#FFFFFF" font-family="sans-serif"> Gravity</text></g><g class="node" transform="translate(268.4841481699199,-208.7303643461328)"><circle class="outline" cx="0" cy="0" r="25" fill="#F16667" stroke="#eb2728" stroke-width="2px"/><text text-anchor="middle" pointer-events="none" font-family="sans-serif" dy="1.5625" font-size="25" fill="#FFFFFF"/><text text-anchor="middle" pointer-events="none" y="5" font-size="10px" fill="#FFFFFF" font-family="sans-serif"> Cindrella</text></g><g class="node" transform="translate(238.037528661908,9.762677833154795)"><circle class="outline" cx="0" cy="0" r="25" fill="#F16667" stroke="#eb2728" stroke-width="2px"/><text text-anchor="middle" pointer-events="none" font-family="sans-serif" dy="1.5625" font-size="25" fill="#FFFFFF"/><text text-anchor="middle" pointer-events="none" font-family="sans-serif" dy="1.5625" font-size="25" fill="#FFFFFF"/><text text-anchor="middle" pointer-events="none" y="0" font-size="10px" fill="#FFFFFF" font-family="sans-serif"> Doctor</text><text text-anchor="middle" pointer-events="none" y="10" font-size="10px" fill="#FFFFFF" font-family="sans-serif"> Strange</text></g><g class="node" transform="translate(209.22245989416186,-218.59600494699143)"><circle class="outline" cx="0" cy="0" r="25" fill="#F16667" stroke="#eb2728" stroke-width="2px"/><text text-anchor="middle" pointer-events="none" font-family="sans-serif" dy="1.5625" font-size="25" fill="#FFFFFF"/><text text-anchor="middle" pointer-events="none" font-family="sans-serif" dy="1.5625" font-size="25" fill="#FFFFFF"/><text text-anchor="middle" pointer-events="none" y="0" font-size="10px" fill="#FFFFFF" font-family="sans-serif"> Death</text><text text-anchor="middle" pointer-events="none" y="10" font-size="10px" fill="#FFFFFF" font-family="sans-serif"> Note</text></g><g class="node" transform="translate(209.82590396945025,110.85404268099676)"><circle class="outline" cx="0" cy="0" r="25" fill="#F16667" stroke="#eb2728" stroke-width="2px"/><text text-anchor="middle" pointer-events="none" font-family="sans-serif" dy="1.5625" font-size="25" fill="#FFFFFF"/><text text-anchor="middle" pointer-events="none" font-family="sans-serif" dy="1.5625" font-size="25" fill="#FFFFFF"/><text text-anchor="middle" pointer-events="none" y="0" font-size="10px" fill="#FFFFFF" font-family="sans-serif"> Fast &amp;</text><text text-anchor="middle" pointer-events="none" y="10" font-size="10px" fill="#FFFFFF" font-family="sans-serif"> Furious</text></g><g class="node" transform="translate(281.92117197976984,-64.27431839654899)"><circle class="outline" cx="0" cy="0" r="25" fill="#F16667" stroke="#eb2728" stroke-width="2px"/><text text-anchor="middle" pointer-events="none" font-family="sans-serif" dy="1.5625" font-size="25" fill="#FFFFFF"/><text text-anchor="middle" pointer-events="none" y="5" font-size="10px" fill="#FFFFFF" font-family="sans-serif"> Ashiqui 2</text></g><g class="node" transform="translate(371.59879917916976,72.27927891636176)"><circle class="outline" cx="0" cy="0" r="25" fill="#F16667" stroke="#eb2728" stroke-width="2px"/><text text-anchor="middle" pointer-events="none" font-family="sans-serif" dy="1.5625" font-size="25" fill="#FFFFFF"/><text text-anchor="middle" pointer-events="none" y="5" font-size="10px" fill="#FFFFFF" font-family="sans-serif"> Ted</text></g><g class="node" transform="translate(251.641040196672,67.98452362984487)"><circle class="outline" cx="0" cy="0" r="25" fill="#F16667" stroke="#eb2728" stroke-width="2px"/><text text-anchor="middle" pointer-events="none" font-family="sans-serif" dy="1.5625" font-size="25" fill="#FFFFFF"/><text text-anchor="middle" pointer-events="none" font-family="sans-serif" dy="1.5625" font-size="25" fill="#FFFFFF"/><text text-anchor="middle" pointer-events="none" y="0" font-size="10px" fill="#FFFFFF" font-family="sans-serif"> Mission</text><text text-anchor="middle" pointer-events="none" y="10" font-size="10px" fill="#FFFFFF" font-family="sans-serif"> Impossi…</text></g><g class="node" transform="translate(225.564190960245,-160.91346121967436)"><circle class="outline" cx="0" cy="0" r="25" fill="#F16667" stroke="#eb2728" stroke-width="2px"/><text text-anchor="middle" pointer-events="none" font-family="sans-serif" dy="1.5625" font-size="25" fill="#FFFFFF"/><text text-anchor="middle" pointer-events="none" font-family="sans-serif" dy="1.5625" font-size="25" fill="#FFFFFF"/><text text-anchor="middle" pointer-events="none" y="0" font-size="10px" fill="#FFFFFF" font-family="sans-serif"> Lincoln</text><text text-anchor="middle" pointer-events="none" y="10" font-size="10px" fill="#FFFFFF" font-family="sans-serif"> Lawyer</text></g><g class="node" transform="translate(515.5416940652536,73.18871693037178)"><circle class="outline" cx="0" cy="0" r="25" fill="#F16667" stroke="#eb2728" stroke-width="2px"/><text text-anchor="middle" pointer-events="none" font-family="sans-serif" dy="1.5625" font-size="25" fill="#FFFFFF"/><text text-anchor="middle" pointer-events="none" y="5" font-size="10px" fill="#FFFFFF" font-family="sans-serif"> Bajirao…</text></g><g class="node" transform="translate(194.44957083471996,50.853629459107296)"><circle class="outline" cx="0" cy="0" r="25" fill="#F16667" stroke="#eb2728" stroke-width="2px"/><text text-anchor="middle" pointer-events="none" font-family="sans-serif" dy="1.5625" font-size="25" fill="#FFFFFF"/><text text-anchor="middle" pointer-events="none" y="5" font-size="10px" fill="#FFFFFF" font-family="sans-serif"> Race2</text></g><g class="node" transform="translate(351.90939263386787,15.591351030404374)"><circle class="outline" cx="0" cy="0" r="25" fill="#F16667" stroke="#eb2728" stroke-width="2px"/><text text-anchor="middle" pointer-events="none" font-family="sans-serif" dy="1.5625" font-size="25" fill="#FFFFFF"/><text text-anchor="middle" pointer-events="none" font-family="sans-serif" dy="1.5625" font-size="25" fill="#FFFFFF"/><text text-anchor="middle" pointer-events="none" font-family="sans-serif" dy="1.5625" font-size="25" fill="#FFFFFF"/><text text-anchor="middle" pointer-events="none" font-family="sans-serif" dy="1.5625" font-size="25" fill="#FFFFFF"/><text text-anchor="middle" pointer-events="none" y="-10" font-size="10px" fill="#FFFFFF" font-family="sans-serif"> Ajab</text><text text-anchor="middle" pointer-events="none" y="0" font-size="10px" fill="#FFFFFF" font-family="sans-serif"> Prem Ki</text><text text-anchor="middle" pointer-events="none" y="10" font-size="10px" fill="#FFFFFF" font-family="sans-serif"> Ghazab</text><text text-anchor="middle" pointer-events="none" y="20" font-size="10px" fill="#FFFFFF" font-family="sans-serif"> Kah…</text></g><g class="node" transform="translate(339.939380141155,123.01629357955089)"><circle class="outline" cx="0" cy="0" r="25" fill="#F16667" stroke="#eb2728" stroke-width="2px"/><text text-anchor="middle" pointer-events="none" font-family="sans-serif" dy="1.5625" font-size="25" fill="#FFFFFF"/><text text-anchor="middle" pointer-events="none" font-family="sans-serif" dy="1.5625" font-size="25" fill="#FFFFFF"/><text text-anchor="middle" pointer-events="none" y="0" font-size="10px" fill="#FFFFFF" font-family="sans-serif"> Oh My</text><text text-anchor="middle" pointer-events="none" y="10" font-size="10px" fill="#FFFFFF" font-family="sans-serif"> God</text></g><g class="node" transform="translate(308.0910933247862,173.67822358359348)"><circle class="outline" cx="0" cy="0" r="25" fill="#F16667" stroke="#eb2728" stroke-width="2px"/><text text-anchor="middle" pointer-events="none" font-family="sans-serif" dy="1.5625" font-size="25" fill="#FFFFFF"/><text text-anchor="middle" pointer-events="none" y="5" font-size="10px" fill="#FFFFFF" font-family="sans-serif"> Dictator</text></g><g class="node" transform="translate(518.9769563299931,13.402789112162628)"><circle class="outline" cx="0" cy="0" r="25" fill="#F16667" stroke="#eb2728" stroke-width="2px"/><text text-anchor="middle" pointer-events="none" font-family="sans-serif" dy="1.5625" font-size="25" fill="#FFFFFF"/><text text-anchor="middle" pointer-events="none" font-family="sans-serif" dy="1.5625" font-size="25" fill="#FFFFFF"/><text text-anchor="middle" pointer-events="none" y="0" font-size="10px" fill="#FFFFFF" font-family="sans-serif"> Mohenjo</text><text text-anchor="middle" pointer-events="none" y="10" font-size="10px" fill="#FFFFFF" font-family="sans-serif"> Daro</text></g><g class="node" transform="translate(284.3377798899854,-148.51284082097766)"><circle class="outline" cx="0" cy="0" r="25" fill="#F16667" stroke="#eb2728" stroke-width="2px"/><text text-anchor="middle" pointer-events="none" font-family="sans-serif" dy="1.5625" font-size="25" fill="#FFFFFF"/><text text-anchor="middle" pointer-events="none" font-family="sans-serif" dy="1.5625" font-size="25" fill="#FFFFFF"/><text text-anchor="middle" pointer-events="none" y="0" font-size="10px" fill="#FFFFFF" font-family="sans-serif"> Stuart</text><text text-anchor="middle" pointer-events="none" y="10" font-size="10px" fill="#FFFFFF" font-family="sans-serif"> Little</text></g><g class="node" transform="translate(296.0778113220076,-6.024008479030593)"><circle class="outline" cx="0" cy="0" r="25" fill="#F16667" stroke="#eb2728" stroke-width="2px"/><text text-anchor="middle" pointer-events="none" font-family="sans-serif" dy="1.5625" font-size="25" fill="#FFFFFF"/><text text-anchor="middle" pointer-events="none" font-family="sans-serif" dy="1.5625" font-size="25" fill="#FFFFFF"/><text text-anchor="middle" pointer-events="none" font-family="sans-serif" dy="1.5625" font-size="25" fill="#FFFFFF"/><text text-anchor="middle" pointer-events="none" y="-5" font-size="10px" fill="#FFFFFF" font-family="sans-serif"> Dilwale</text><text text-anchor="middle" pointer-events="none" y="5" font-size="10px" fill="#FFFFFF" font-family="sans-serif"> Dulhaniya</text><text text-anchor="middle" pointer-events="none" y="15" font-size="10px" fill="#FFFFFF" font-family="sans-serif"> Le Jay…</text></g><g class="node" transform="translate(180.89159533487003,-7.556879720106923)"><circle class="outline" cx="0" cy="0" r="25" fill="#F16667" stroke="#eb2728" stroke-width="2px"/><text text-anchor="middle" pointer-events="none" font-family="sans-serif" dy="1.5625" font-size="25" fill="#FFFFFF"/><text text-anchor="middle" pointer-events="none" y="5" font-size="10px" fill="#FFFFFF" font-family="sans-serif"> Baahubali</text></g><g class="node" transform="translate(280.019345677353,120.94198424675821)"><circle class="outline" cx="0" cy="0" r="25" fill="#F16667" stroke="#eb2728" stroke-width="2px"/><text text-anchor="middle" pointer-events="none" font-family="sans-serif" dy="1.5625" font-size="25" fill="#FFFFFF"/><text text-anchor="middle" pointer-events="none" y="5" font-size="10px" fill="#FFFFFF" font-family="sans-serif"> Piku</text></g><g class="node" transform="translate(311.74759222602023,70.15442744393248)"><circle class="outline" cx="0" cy="0" r="25" fill="#F16667" stroke="#eb2728" stroke-width="2px"/><text text-anchor="middle" pointer-events="none" font-family="sans-serif" dy="1.5625" font-size="25" fill="#FFFFFF"/><text text-anchor="middle" pointer-events="none" font-family="sans-serif" dy="1.5625" font-size="25" fill="#FFFFFF"/><text text-anchor="middle" pointer-events="none" y="0" font-size="10px" fill="#FFFFFF" font-family="sans-serif"> Chennai</text><text text-anchor="middle" pointer-events="none" y="10" font-size="10px" fill="#FFFFFF" font-family="sans-serif"> Express</text></g><g class="node" transform="translate(167.64021755499377,-175.4548225670503)"><circle class="outline" cx="0" cy="0" r="25" fill="#F16667" stroke="#eb2728" stroke-width="2px"/><text text-anchor="middle" pointer-events="none" font-family="sans-serif" dy="1.5625" font-size="25" fill="#FFFFFF"/><text text-anchor="middle" pointer-events="none" y="5" font-size="10px" fill="#FFFFFF" font-family="sans-serif"> The Walk</text></g><g class="node" transform="translate(558.0087568071918,-99.3348388286218)"><circle class="outline" cx="0" cy="0" r="25" fill="#F16667" stroke="#eb2728" stroke-width="2px"/><text text-anchor="middle" pointer-events="none" font-family="sans-serif" dy="1.5625" font-size="25" fill="#FFFFFF"/><text text-anchor="middle" pointer-events="none" y="5" font-size="10px" fill="#FFFFFF" font-family="sans-serif"> Drishyam</text></g><g class="node" transform="translate(533.3855625992137,-153.9782889282346)"><circle class="outline" cx="0" cy="0" r="25" fill="#F16667" stroke="#eb2728" stroke-width="2px"/><text text-anchor="middle" pointer-events="none" font-family="sans-serif" dy="1.5625" font-size="25" fill="#FFFFFF"/><text text-anchor="middle" pointer-events="none" y="5" font-size="10px" fill="#FFFFFF" font-family="sans-serif"> Rustom</text></g><g class="node" transform="translate(515.721814018478,-211.25681766010368)"><circle class="outline" cx="0" cy="0" r="25" fill="#F16667" stroke="#eb2728" stroke-width="2px"/><text text-anchor="middle" pointer-events="none" font-family="sans-serif" dy="1.5625" font-size="25" fill="#FFFFFF"/><text text-anchor="middle" pointer-events="none" y="5" font-size="10px" fill="#FFFFFF" font-family="sans-serif"> LunchBox</text></g><g class="node" transform="translate(325.8422694049234,-191.72995917389542)"><circle class="outline" cx="0" cy="0" r="25" fill="#F16667" stroke="#eb2728" stroke-width="2px"/><text text-anchor="middle" pointer-events="none" font-family="sans-serif" dy="1.5625" font-size="25" fill="#FFFFFF"/><text text-anchor="middle" pointer-events="none" y="5" font-size="10px" fill="#FFFFFF" font-family="sans-serif"> Cars</text></g><g class="node" transform="translate(573.4450957667752,-11.381840739665485)"><circle class="outline" cx="0" cy="0" r="25" fill="#F16667" stroke="#eb2728" stroke-width="2px"/><text text-anchor="middle" pointer-events="none" font-family="sans-serif" dy="1.5625" font-size="25" fill="#FFFFFF"/><text text-anchor="middle" pointer-events="none" y="5" font-size="10px" fill="#FFFFFF" font-family="sans-serif"> JodhaAk…</text></g><g class="node" transform="translate(-137.48693040453676,-63.55454601823092)"><circle class="outline" cx="0" cy="0" r="25" fill="#F16667" stroke="#eb2728" stroke-width="2px"/><text text-anchor="middle" pointer-events="none" font-family="sans-serif" dy="1.5625" font-size="25" fill="#FFFFFF"/><text text-anchor="middle" pointer-events="none" y="5" font-size="10px" fill="#FFFFFF" font-family="sans-serif"> Arrow</text></g><g class="node" transform="translate(-63.520750467091716,-77.79193379405922)"><circle class="outline" cx="0" cy="0" r="25" fill="#F16667" stroke="#eb2728" stroke-width="2px"/><text text-anchor="middle" pointer-events="none" font-family="sans-serif" dy="1.5625" font-size="25" fill="#FFFFFF"/><text text-anchor="middle" pointer-events="none" font-family="sans-serif" dy="1.5625" font-size="25" fill="#FFFFFF"/><text text-anchor="middle" pointer-events="none" font-family="sans-serif" dy="1.5625" font-size="25" fill="#FFFFFF"/><text text-anchor="middle" pointer-events="none" y="-5" font-size="10px" fill="#FFFFFF" font-family="sans-serif"> How I</text><text text-anchor="middle" pointer-events="none" y="5" font-size="10px" fill="#FFFFFF" font-family="sans-serif"> Met Your</text><text text-anchor="middle" pointer-events="none" y="15" font-size="10px" fill="#FFFFFF" font-family="sans-serif"> Mother</text></g><g class="node" transform="translate(-394.8764166067097,-78.36434949952707)"><circle class="outline" cx="0" cy="0" r="25" fill="#F16667" stroke="#eb2728" stroke-width="2px"/><text text-anchor="middle" pointer-events="none" font-family="sans-serif" dy="1.5625" font-size="25" fill="#FFFFFF"/><text text-anchor="middle" pointer-events="none" font-family="sans-serif" dy="1.5625" font-size="25" fill="#FFFFFF"/><text text-anchor="middle" pointer-events="none" font-family="sans-serif" dy="1.5625" font-size="25" fill="#FFFFFF"/><text text-anchor="middle" pointer-events="none" y="-5" font-size="10px" fill="#FFFFFF" font-family="sans-serif"> Koffee</text><text text-anchor="middle" pointer-events="none" y="5" font-size="10px" fill="#FFFFFF" font-family="sans-serif"> With</text><text text-anchor="middle" pointer-events="none" y="15" font-size="10px" fill="#FFFFFF" font-family="sans-serif"> karan</text></g><g class="node" transform="translate(-372.4064261798985,-196.00912282575354)"><circle class="outline" cx="0" cy="0" r="25" fill="#F16667" stroke="#eb2728" stroke-width="2px"/><text text-anchor="middle" pointer-events="none" font-family="sans-serif" dy="1.5625" font-size="25" fill="#FFFFFF"/><text text-anchor="middle" pointer-events="none" font-family="sans-serif" dy="1.5625" font-size="25" fill="#FFFFFF"/><text text-anchor="middle" pointer-events="none" y="0" font-size="10px" fill="#FFFFFF" font-family="sans-serif"> Death By</text><text text-anchor="middle" pointer-events="none" y="10" font-size="10px" fill="#FFFFFF" font-family="sans-serif"> Magic</text></g><g class="node" transform="translate(-133.3777692912314,-241.22963624763327)"><circle class="outline" cx="0" cy="0" r="25" fill="#F16667" stroke="#eb2728" stroke-width="2px"/><text text-anchor="middle" pointer-events="none" font-family="sans-serif" dy="1.5625" font-size="25" fill="#FFFFFF"/><text text-anchor="middle" pointer-events="none" font-family="sans-serif" dy="1.5625" font-size="25" fill="#FFFFFF"/><text text-anchor="middle" pointer-events="none" y="0" font-size="10px" fill="#FFFFFF" font-family="sans-serif"> Stranger</text><text text-anchor="middle" pointer-events="none" y="10" font-size="10px" fill="#FFFFFF" font-family="sans-serif"> Things</text></g><g class="node" transform="translate(-99.44961771886841,17.098244385257892)"><circle class="outline" cx="0" cy="0" r="25" fill="#F16667" stroke="#eb2728" stroke-width="2px"/><text text-anchor="middle" pointer-events="none" font-family="sans-serif" dy="1.5625" font-size="25" fill="#FFFFFF"/><text text-anchor="middle" pointer-events="none" font-family="sans-serif" dy="1.5625" font-size="25" fill="#FFFFFF"/><text text-anchor="middle" pointer-events="none" y="0" font-size="10px" fill="#FFFFFF" font-family="sans-serif"> LUST</text><text text-anchor="middle" pointer-events="none" y="10" font-size="10px" fill="#FFFFFF" font-family="sans-serif"> stories</text></g><g class="node" transform="translate(-54.781840851889115,123.72222494339658)"><circle class="outline" cx="0" cy="0" r="25" fill="#F16667" stroke="#eb2728" stroke-width="2px"/><text text-anchor="middle" pointer-events="none" font-family="sans-serif" dy="1.5625" font-size="25" fill="#FFFFFF"/><text text-anchor="middle" pointer-events="none" font-family="sans-serif" dy="1.5625" font-size="25" fill="#FFFFFF"/><text text-anchor="middle" pointer-events="none" y="0" font-size="10px" fill="#FFFFFF" font-family="sans-serif"> Tarak</text><text text-anchor="middle" pointer-events="none" y="10" font-size="10px" fill="#FFFFFF" font-family="sans-serif"> Mehta</text></g><g class="node" transform="translate(-34.731776662741936,-161.75579410040552)"><circle class="outline" cx="0" cy="0" r="25" fill="#F16667" stroke="#eb2728" stroke-width="2px"/><text text-anchor="middle" pointer-events="none" font-family="sans-serif" dy="1.5625" font-size="25" fill="#FFFFFF"/><text text-anchor="middle" pointer-events="none" y="5" font-size="10px" fill="#FFFFFF" font-family="sans-serif"> Pokemon</text></g><g class="node" transform="translate(-109.93399955056063,100.9421137668051)"><circle class="outline" cx="0" cy="0" r="25" fill="#F16667" stroke="#eb2728" stroke-width="2px"/><text text-anchor="middle" pointer-events="none" font-family="sans-serif" dy="1.5625" font-size="25" fill="#FFFFFF"/><text text-anchor="middle" pointer-events="none" y="5" font-size="10px" fill="#FFFFFF" font-family="sans-serif"> Friends</text></g><g class="node" transform="translate(-87.19210116374082,-132.9798750279649)"><circle class="outline" cx="0" cy="0" r="25" fill="#F16667" stroke="#eb2728" stroke-width="2px"/><text text-anchor="middle" pointer-events="none" font-family="sans-serif" dy="1.5625" font-size="25" fill="#FFFFFF"/><text text-anchor="middle" pointer-events="none" font-family="sans-serif" dy="1.5625" font-size="25" fill="#FFFFFF"/><text text-anchor="middle" pointer-events="none" y="0" font-size="10px" fill="#FFFFFF" font-family="sans-serif"> One</text><text text-anchor="middle" pointer-events="none" y="10" font-size="10px" fill="#FFFFFF" font-family="sans-serif"> Piece</text></g><g class="node" transform="translate(-208.72504940535373,69.88970442152525)"><circle class="outline" cx="0" cy="0" r="25" fill="#F16667" stroke="#eb2728" stroke-width="2px"/><text text-anchor="middle" pointer-events="none" font-family="sans-serif" dy="1.5625" font-size="25" fill="#FFFFFF"/><text text-anchor="middle" pointer-events="none" y="5" font-size="10px" fill="#FFFFFF" font-family="sans-serif"> Narcos</text></g><g class="node" transform="translate(-216.26415002856635,5.476496432332967)"><circle class="outline" cx="0" cy="0" r="25" fill="#F16667" stroke="#eb2728" stroke-width="2px"/><text text-anchor="middle" pointer-events="none" font-family="sans-serif" dy="1.5625" font-size="25" fill="#FFFFFF"/><text text-anchor="middle" pointer-events="none" y="5" font-size="10px" fill="#FFFFFF" font-family="sans-serif"> BlackMir…</text></g><g class="node" transform="translate(-150.40275364168303,56.45423914541201)"><circle class="outline" cx="0" cy="0" r="25" fill="#F16667" stroke="#eb2728" stroke-width="2px"/><text text-anchor="middle" pointer-events="none" font-family="sans-serif" dy="1.5625" font-size="25" fill="#FFFFFF"/><text text-anchor="middle" pointer-events="none" y="5" font-size="10px" fill="#FFFFFF" font-family="sans-serif"> Mirzapur</text></g><g class="node" transform="translate(-62.54602352116027,64.3550798557808)"><circle class="outline" cx="0" cy="0" r="25" fill="#F16667" stroke="#eb2728" stroke-width="2px"/><text text-anchor="middle" pointer-events="none" font-family="sans-serif" dy="1.5625" font-size="25" fill="#FFFFFF"/><text text-anchor="middle" pointer-events="none" font-family="sans-serif" dy="1.5625" font-size="25" fill="#FFFFFF"/><text text-anchor="middle" pointer-events="none" y="0" font-size="10px" fill="#FFFFFF" font-family="sans-serif"> Family</text><text text-anchor="middle" pointer-events="none" y="10" font-size="10px" fill="#FFFFFF" font-family="sans-serif"> Guy</text></g><g class="node" transform="translate(-189.30456969421488,-219.6590612438998)"><circle class="outline" cx="0" cy="0" r="25" fill="#F16667" stroke="#eb2728" stroke-width="2px"/><text text-anchor="middle" pointer-events="none" font-family="sans-serif" dy="1.5625" font-size="25" fill="#FFFFFF"/><text text-anchor="middle" pointer-events="none" y="5" font-size="10px" fill="#FFFFFF" font-family="sans-serif"> Sherlock</text></g><g class="node" transform="translate(-51.83981450637185,-19.10892225186976)"><circle class="outline" cx="0" cy="0" r="25" fill="#F16667" stroke="#eb2728" stroke-width="2px"/><text text-anchor="middle" pointer-events="none" font-family="sans-serif" dy="1.5625" font-size="25" fill="#FFFFFF"/><text text-anchor="middle" pointer-events="none" font-family="sans-serif" dy="1.5625" font-size="25" fill="#FFFFFF"/><text text-anchor="middle" pointer-events="none" y="0" font-size="10px" fill="#FFFFFF" font-family="sans-serif"> Beauty</text><text text-anchor="middle" pointer-events="none" y="10" font-size="10px" fill="#FFFFFF" font-family="sans-serif"> And Be…</text></g><g class="node" transform="translate(-168.55658334669533,114.23509559823053)"><circle class="outline" cx="0" cy="0" r="25" fill="#F16667" stroke="#eb2728" stroke-width="2px"/><text text-anchor="middle" pointer-events="none" font-family="sans-serif" dy="1.5625" font-size="25" fill="#FFFFFF"/><text text-anchor="middle" pointer-events="none" font-family="sans-serif" dy="1.5625" font-size="25" fill="#FFFFFF"/><text text-anchor="middle" pointer-events="none" y="0" font-size="10px" fill="#FFFFFF" font-family="sans-serif"> Breaking</text><text text-anchor="middle" pointer-events="none" y="10" font-size="10px" fill="#FFFFFF" font-family="sans-serif"> Bad</text></g><g class="node" transform="translate(-381.3776921593813,-136.7831908125356)"><circle class="outline" cx="0" cy="0" r="25" fill="#F16667" stroke="#eb2728" stroke-width="2px"/><text text-anchor="middle" pointer-events="none" font-family="sans-serif" dy="1.5625" font-size="25" fill="#FFFFFF"/><text text-anchor="middle" pointer-events="none" font-family="sans-serif" dy="1.5625" font-size="25" fill="#FFFFFF"/><text text-anchor="middle" pointer-events="none" font-family="sans-serif" dy="1.5625" font-size="25" fill="#FFFFFF"/><text text-anchor="middle" pointer-events="none" y="-5" font-size="10px" fill="#FFFFFF" font-family="sans-serif"> Kapil</text><text text-anchor="middle" pointer-events="none" y="5" font-size="10px" fill="#FFFFFF" font-family="sans-serif"> Sharma</text><text text-anchor="middle" pointer-events="none" y="15" font-size="10px" fill="#FFFFFF" font-family="sans-serif"> Show</text></g><g class="node" transform="translate(-347.5295718739277,52.75609963063765)"><circle class="outline" cx="0" cy="0" r="25" fill="#F16667" stroke="#eb2728" stroke-width="2px"/><text text-anchor="middle" pointer-events="none" font-family="sans-serif" dy="1.5625" font-size="25" fill="#FFFFFF"/><text text-anchor="middle" pointer-events="none" font-family="sans-serif" dy="1.5625" font-size="25" fill="#FFFFFF"/><text text-anchor="middle" pointer-events="none" font-family="sans-serif" dy="1.5625" font-size="25" fill="#FFFFFF"/><text text-anchor="middle" pointer-events="none" font-family="sans-serif" dy="1.5625" font-size="25" fill="#FFFFFF"/><text text-anchor="middle" pointer-events="none" y="-10" font-size="10px" fill="#FFFFFF" font-family="sans-serif"> Count</text><text text-anchor="middle" pointer-events="none" y="0" font-size="10px" fill="#FFFFFF" font-family="sans-serif"> Down To</text><text text-anchor="middle" pointer-events="none" y="10" font-size="10px" fill="#FFFFFF" font-family="sans-serif"> Death:</text><text text-anchor="middle" pointer-events="none" y="20" font-size="10px" fill="#FFFFFF" font-family="sans-serif"> Pao…</text></g><g class="node" transform="translate(-74.67300996263533,-206.20109635936623)"><circle class="outline" cx="0" cy="0" r="25" fill="#F16667" stroke="#eb2728" stroke-width="2px"/><text text-anchor="middle" pointer-events="none" font-family="sans-serif" dy="1.5625" font-size="25" fill="#FFFFFF"/><text text-anchor="middle" pointer-events="none" font-family="sans-serif" dy="1.5625" font-size="25" fill="#FFFFFF"/><text text-anchor="middle" pointer-events="none" y="0" font-size="10px" fill="#FFFFFF" font-family="sans-serif"> Dragon</text><text text-anchor="middle" pointer-events="none" y="10" font-size="10px" fill="#FFFFFF" font-family="sans-serif"> Ball Z</text></g><g class="node" transform="translate(-142.70953411821688,-182.05988286563397)"><circle class="outline" cx="0" cy="0" r="25" fill="#F16667" stroke="#eb2728" stroke-width="2px"/><text text-anchor="middle" pointer-events="none" font-family="sans-serif" dy="1.5625" font-size="25" fill="#FFFFFF"/><text text-anchor="middle" pointer-events="none" font-family="sans-serif" dy="1.5625" font-size="25" fill="#FFFFFF"/><text text-anchor="middle" pointer-events="none" y="0" font-size="10px" fill="#FFFFFF" font-family="sans-serif"> Sacred</text><text text-anchor="middle" pointer-events="none" y="10" font-size="10px" fill="#FFFFFF" font-family="sans-serif"> games</text></g><g class="node" transform="translate(-157.71467057992788,-7.1130811809969074)"><circle class="outline" cx="0" cy="0" r="25" fill="#F16667" stroke="#eb2728" stroke-width="2px"/><text text-anchor="middle" pointer-events="none" font-family="sans-serif" dy="1.5625" font-size="25" fill="#FFFFFF"/><text text-anchor="middle" pointer-events="none" y="5" font-size="10px" fill="#FFFFFF" font-family="sans-serif"> Heroes</text></g><g class="node" transform="translate(-383.608183077763,4.891783602189297)"><circle class="outline" cx="0" cy="0" r="25" fill="#F16667" stroke="#eb2728" stroke-width="2px"/><text text-anchor="middle" pointer-events="none" font-family="sans-serif" dy="1.5625" font-size="25" fill="#FFFFFF"/><text text-anchor="middle" pointer-events="none" font-family="sans-serif" dy="1.5625" font-size="25" fill="#FFFFFF"/><text text-anchor="middle" pointer-events="none" font-family="sans-serif" dy="1.5625" font-size="25" fill="#FFFFFF"/><text text-anchor="middle" pointer-events="none" y="-5" font-size="10px" fill="#FFFFFF" font-family="sans-serif"> World</text><text text-anchor="middle" pointer-events="none" y="5" font-size="10px" fill="#FFFFFF" font-family="sans-serif"> War II in</text><text text-anchor="middle" pointer-events="none" y="15" font-size="10px" fill="#FFFFFF" font-family="sans-serif"> color</text></g><g class="node" transform="translate(-456.97547040134975,149.04124707676579)"><circle class="outline" cx="0" cy="0" r="25" fill="#4C8EDA" stroke="#2870c2" stroke-width="2px"/><text text-anchor="middle" pointer-events="none" font-family="sans-serif" dy="1.5625" font-size="25" fill="#FFFFFF"/><text text-anchor="middle" pointer-events="none" y="5" font-size="10px" fill="#FFFFFF" font-family="sans-serif"> Docume…</text></g><g class="node" transform="translate(-509.36618930369684,-143.43282256582467)"><circle class="outline" cx="0" cy="0" r="25" fill="#4C8EDA" stroke="#2870c2" stroke-width="2px"/><text text-anchor="middle" pointer-events="none" font-family="sans-serif" dy="1.5625" font-size="25" fill="#FFFFFF"/><text text-anchor="middle" pointer-events="none" font-family="sans-serif" dy="1.5625" font-size="25" fill="#FFFFFF"/><text text-anchor="middle" pointer-events="none" font-family="sans-serif" dy="1.5625" font-size="25" fill="#FFFFFF"/><text text-anchor="middle" pointer-events="none" y="-5" font-size="10px" fill="#FFFFFF" font-family="sans-serif"> Reality</text><text text-anchor="middle" pointer-events="none" y="5" font-size="10px" fill="#FFFFFF" font-family="sans-serif"> &amp; Talk</text><text text-anchor="middle" pointer-events="none" y="15" font-size="10px" fill="#FFFFFF" font-family="sans-serif"> shows</text></g><g class="node" transform="translate(25.555605719942392,78.03344166640034)"><circle class="outline" cx="0" cy="0" r="25" fill="#4C8EDA" stroke="#2870c2" stroke-width="2px"/><text text-anchor="middle" pointer-events="none" font-family="sans-serif" dy="1.5625" font-size="25" fill="#FFFFFF"/><text text-anchor="middle" pointer-events="none" y="5" font-size="10px" fill="#FFFFFF" font-family="sans-serif"> Action</text></g><g class="node" transform="translate(6.732752712749949,-110.94327841444007)"><circle class="outline" cx="0" cy="0" r="25" fill="#4C8EDA" stroke="#2870c2" stroke-width="2px"/><text text-anchor="middle" pointer-events="none" font-family="sans-serif" dy="1.5625" font-size="25" fill="#FFFFFF"/><text text-anchor="middle" pointer-events="none" font-family="sans-serif" dy="1.5625" font-size="25" fill="#FFFFFF"/><text text-anchor="middle" pointer-events="none" y="0" font-size="10px" fill="#FFFFFF" font-family="sans-serif"> Thriller &amp;</text><text text-anchor="middle" pointer-events="none" y="10" font-size="10px" fill="#FFFFFF" font-family="sans-serif"> Horror</text></g><g class="node" transform="translate(121.76187140185237,118.3177988344633)"><circle class="outline" cx="0" cy="0" r="25" fill="#4C8EDA" stroke="#2870c2" stroke-width="2px"/><text text-anchor="middle" pointer-events="none" font-family="sans-serif" dy="1.5625" font-size="25" fill="#FFFFFF"/><text text-anchor="middle" pointer-events="none" y="5" font-size="10px" fill="#FFFFFF" font-family="sans-serif"> Comedy</text></g><g class="node" transform="translate(110.50263337526425,-75.35483731963421)"><circle class="outline" cx="0" cy="0" r="25" fill="#4C8EDA" stroke="#2870c2" stroke-width="2px"/><text text-anchor="middle" pointer-events="none" font-family="sans-serif" dy="1.5625" font-size="25" fill="#FFFFFF"/><text text-anchor="middle" pointer-events="none" y="5" font-size="10px" fill="#FFFFFF" font-family="sans-serif"> Anime</text></g><g class="node" transform="translate(117.53215983608793,7.887623241451024)"><circle class="outline" cx="0" cy="0" r="25" fill="#4C8EDA" stroke="#2870c2" stroke-width="2px"/><text text-anchor="middle" pointer-events="none" font-family="sans-serif" dy="1.5625" font-size="25" fill="#FFFFFF"/><text text-anchor="middle" pointer-events="none" y="5" font-size="10px" fill="#FFFFFF" font-family="sans-serif"> Romance</text></g><g class="node" transform="translate(17.872207399758906,-25.592762532318034)"><circle class="outline" cx="0" cy="0" r="25" fill="#4C8EDA" stroke="#2870c2" stroke-width="2px"/><text text-anchor="middle" pointer-events="none" font-family="sans-serif" dy="1.5625" font-size="25" fill="#FFFFFF"/><text text-anchor="middle" pointer-events="none" font-family="sans-serif" dy="1.5625" font-size="25" fill="#FFFFFF"/><text text-anchor="middle" pointer-events="none" y="0" font-size="10px" fill="#FFFFFF" font-family="sans-serif"> Sci-Fi &amp;</text><text text-anchor="middle" pointer-events="none" y="10" font-size="10px" fill="#FFFFFF" font-family="sans-serif"> Fantasy</text></g><g class="node" transform="translate(659.7785656988167,-187.17109541673221)"><circle class="outline" cx="0" cy="0" r="25" fill="#4C8EDA" stroke="#2870c2" stroke-width="2px"/><text text-anchor="middle" pointer-events="none" font-family="sans-serif" dy="1.5625" font-size="25" fill="#FFFFFF"/><text text-anchor="middle" pointer-events="none" y="5" font-size="10px" fill="#FFFFFF" font-family="sans-serif"> Drama</text></g><g class="node" transform="translate(638.0011579119815,126.22404401445311)"><circle class="outline" cx="0" cy="0" r="25" fill="#4C8EDA" stroke="#2870c2" stroke-width="2px"/><text text-anchor="middle" pointer-events="none" font-family="sans-serif" dy="1.5625" font-size="25" fill="#FFFFFF"/><text text-anchor="middle" pointer-events="none" y="5" font-size="10px" fill="#FFFFFF" font-family="sans-serif"> Historical</text></g></g></svg>